<svg xmlns="http://www.w3.org/2000/svg" xmlns:xlink="http://www.w3.org/1999/xlink" viewBox="0 0 500 500"><defs><clipPath id="freepik--clip-path--inject-118"><path d="M230.47,435.33h0a10.58,10.58,0,0,0-9.18,4.93,10.41,10.41,0,0,0,3.05,14.41,10,10,0,0,0,5.21,1.57h0l51.52.62,1.9-20.43Z" style="fill:none"></path></clipPath></defs><g id="freepik--background-complete--inject-118"><rect x="381.13" y="60.8" width="77.38" height="80.66" style="fill:#e0e0e0"></rect><rect x="375.89" y="60.8" width="77.38" height="80.66" style="fill:#fafafa"></rect><path d="M453.29,141.48H375.87V60.77h77.42Zm-77.37,0h77.32V60.82H375.92Z" style="fill:#e0e0e0"></path><rect x="386.29" y="71.64" width="56.57" height="58.97" style="fill:#fff"></rect><path d="M386.29,131a8.94,8.94,0,0,1-1.39,1.62c-.91,1-2.18,2.24-3.6,3.64s-2.73,2.66-3.7,3.54a8.58,8.58,0,0,1-1.63,1.36,8.61,8.61,0,0,1,1.39-1.61c.9-1,2.17-2.25,3.6-3.66s2.74-2.65,3.7-3.54A8.46,8.46,0,0,1,386.29,131Z" style="fill:#e0e0e0"></path><path d="M442.87,130.86a9.32,9.32,0,0,1,1.62,1.4c.95.9,2.24,2.17,3.64,3.59s2.66,2.73,3.54,3.7a8.58,8.58,0,0,1,1.36,1.63,9.16,9.16,0,0,1-1.61-1.38c-1-.91-2.25-2.18-3.65-3.61s-2.66-2.74-3.55-3.7A8.12,8.12,0,0,1,442.87,130.86Z" style="fill:#e0e0e0"></path><path d="M442.71,71.8a9.13,9.13,0,0,1,1.4-1.63c.9-1,2.17-2.24,3.59-3.64s2.74-2.65,3.7-3.54A9,9,0,0,1,453,61.63a9,9,0,0,1-1.38,1.62c-.91,1-2.18,2.24-3.61,3.65s-2.74,2.66-3.7,3.54A9,9,0,0,1,442.71,71.8Z" style="fill:#e0e0e0"></path><path d="M386.14,71.94a9.17,9.17,0,0,1-1.63-1.39c-.95-.91-2.24-2.18-3.64-3.6s-2.65-2.73-3.54-3.7A8.58,8.58,0,0,1,376,61.62,8.82,8.82,0,0,1,377.59,63c1,.9,2.24,2.17,3.65,3.6s2.66,2.74,3.54,3.71A9.15,9.15,0,0,1,386.14,71.94Z" style="fill:#e0e0e0"></path><path d="M442.71,130.61s0-.1,0-.28,0-.48,0-.83q0-1.11,0-3.18c0-2.79,0-6.86-.06-12,0-10.33-.06-25-.11-42.66l.22.22-56.41,0h0l.25-.25c0,21.65,0,41.9,0,59l-.22-.21,40.85.11,11.48.05,3,0h1.06a1,1,0,0,1-.25,0h-.76l-3,0-11.43.06-41,.11h-.21v-.22c0-17.07,0-37.32,0-59v-.25h.26l56.41,0h.22v.22c-.05,17.68-.08,32.44-.11,42.8,0,5.14-.05,9.19-.06,12,0,1.36,0,2.41,0,3.14,0,.34,0,.61,0,.8A.92.92,0,0,1,442.71,130.61Z" style="fill:#e0e0e0"></path><rect x="405.14" y="91.69" width="18.88" height="18.88" style="fill:#ebebeb"></rect><rect x="203.83" y="30.74" width="109" height="180.43" style="fill:#e0e0e0"></rect><rect x="200.21" y="30.74" width="109" height="180.43" style="fill:#ebebeb"></rect><rect x="204.85" y="34.4" width="99.72" height="173.11" style="fill:#fafafa"></rect><rect x="223.83" y="56.89" width="61.32" height="128.12" style="fill:#ebebeb"></rect><path d="M223.83,139.67c-.14-12,10.62-23.65,22.48-25.32,5.65-.8,11.65.33,16.93-1.84,9.43-3.86,12.43-16.39,21.91-20.1l.44,92.6H223.83Z" style="fill:#e0e0e0"></path><rect x="156.71" y="258.45" width="225.7" height="199.72" style="fill:#f5f5f5"></rect><rect x="193.56" y="300.3" width="156.79" height="156.79" style="fill:#e0e0e0"></rect><path d="M350.35,457.09s0-.26,0-.74,0-1.22,0-2.17c0-1.92,0-4.74,0-8.42,0-7.37,0-18.16-.07-31.89,0-27.43-.09-66.59-.15-113.57l.29.29-156.77,0h0l.33-.33c0,57.42,0,111.22,0,156.79l-.29-.28,113.58.14L339,457l8.42,0h2.17l.74,0-.71,0H347.5l-8.36,0-31.82.07-113.76.15h-.28v-.29c0-45.57,0-99.37-.05-156.79V300h.35l156.77,0h.28v.28c-.06,47.06-.11,86.28-.14,113.75,0,13.7-.06,24.47-.08,31.83,0,3.65,0,6.46,0,8.36,0,.94,0,1.65,0,2.14S350.35,457.09,350.35,457.09Z" style="fill:#e0e0e0"></path><path d="M231.37,435.77c-9.88-14.8-8.44-36.18,3.33-49.52,2-2.31,4.62-4.51,7.7-4.64s6.32,2.9,5.27,5.8c-.76,2.08-3.28,3.24-3.72,5.41-.52,2.51,2.43,4.71,5,4.22s4.33-2.76,5.27-5.14,1.25-5,2.09-7.4,2.4-4.82,4.83-5.63c2.11-.71,4.44-.09,6.64-.46,4.12-.68,7-4.77,7.64-8.89s-.36-8.31-1.28-12.38-1.75-8.34-.7-12.38c1.57-6,7.31-10.41,13.45-11.25s12.45,1.57,17.16,5.6,7.95,9.56,10.12,15.36a55.39,55.39,0,0,1-16.7,62.18c-3.57,2.94-7.54,5.45-10.54,9s-4.94,8.4-3.49,12.79" style="fill:#fafafa"></path><path d="M242.5,437.37c-2.13-3.59-4.3-7.33-4.71-11.49s1.47-8.84,5.37-10.32c2.63-1,5.64-.39,8.31-1.29,3.8-1.28,5.93-5.18,8.1-8.55a53.81,53.81,0,0,1,13.73-14.49,16.19,16.19,0,0,1,6.37-3.11,6.85,6.85,0,0,1,6.5,2c2.33,2.89.92,7.31-1.42,10.2s-5.53,5.15-7.15,8.5c-1.93,4-1.24,8.7-1,13.15s-.45,9.51-4,12.15c-1.47,1.09-3.29,1.63-4.81,2.65s-2.78,2.85-2.24,4.6" style="fill:#ebebeb"></path><path d="M293,376.38a4.26,4.26,0,1,0,.35-.37" style="fill:#ebebeb"></path><g style="clip-path:url(#freepik--clip-path--inject-118)"><path d="M230.47,435.33h0a10.58,10.58,0,0,0-9.18,4.93,10.41,10.41,0,0,0,3.05,14.41,10,10,0,0,0,5.21,1.57h0l51.52.62,3.21-20.26Z" style="fill:#f5f5f5"></path><path d="M219.76,444.25a6.34,6.34,0,0,1,1.89-1.15,14.12,14.12,0,0,1,5.95-1,29.43,29.43,0,0,1,8.76,1.79c1.6.52,3.26,1.08,5,1.52a18.46,18.46,0,0,0,5.53.6c3.82-.27,7.16-2.14,10.52-2.72a17.16,17.16,0,0,1,8.87.92,40.2,40.2,0,0,1,5.49,2.48c.63.33,1.11.6,1.44.79a2.65,2.65,0,0,1,.48.3,2.12,2.12,0,0,1-.53-.22l-1.47-.7a46,46,0,0,0-5.52-2.32,17,17,0,0,0-8.68-.8,36.44,36.44,0,0,0-5,1.48,21.7,21.7,0,0,1-5.56,1.28,18.57,18.57,0,0,1-5.67-.62c-1.79-.45-3.46-1-5.05-1.56a29.78,29.78,0,0,0-8.63-1.87,14.48,14.48,0,0,0-5.86.79A17.3,17.3,0,0,0,219.76,444.25Z" style="fill:#e0e0e0"></path><path d="M255.53,449.64a1.57,1.57,0,0,1,.34-.19,4.58,4.58,0,0,1,1.07-.29,4.65,4.65,0,0,1,3.87,1.32l.14.14-.18.1a10.85,10.85,0,0,1-8.85.48,7.26,7.26,0,0,1-1.25-.62,1.67,1.67,0,0,1-.83-1.31,1.59,1.59,0,0,1,1-1.26c.44-.23.87-.46,1.34-.65a14.71,14.71,0,0,1,11.35.06,7.57,7.57,0,0,1,2.23,1.34,2.54,2.54,0,0,1,.82,2.4,3.61,3.61,0,0,1-1.36,2,6.17,6.17,0,0,1-2,1,10.53,10.53,0,0,1-3.91.5,19.94,19.94,0,0,1-5.54-1.2c-.63-.22-1.12-.4-1.45-.53a2.45,2.45,0,0,1-.49-.22,2,2,0,0,1,.53.13l1.47.44a21.52,21.52,0,0,0,5.49,1,10.64,10.64,0,0,0,3.77-.53,5.89,5.89,0,0,0,1.85-1,3.2,3.2,0,0,0,1.19-1.74,2.08,2.08,0,0,0-.71-2,7.1,7.1,0,0,0-2.09-1.24,14.44,14.44,0,0,0-11-.05,12,12,0,0,0-1.3.61c-.4.21-.74.51-.73.86a1.22,1.22,0,0,0,.62.93,6.52,6.52,0,0,0,1.15.58,10.62,10.62,0,0,0,8.55-.34l0,.23a4.52,4.52,0,0,0-3.64-1.35A7.87,7.87,0,0,0,255.53,449.64Z" style="fill:#e0e0e0"></path><path d="M282.47,439.36s-.77-.29-2.18-.75a33.69,33.69,0,0,0-6.09-1.41,29.11,29.11,0,0,0-9.23.14c-3.43.59-6.93,2.31-10.83,3.5s-7.91,1.75-11.37.71-6.2-2.56-8.65-3.56a26.41,26.41,0,0,0-3.35-1.19,14.86,14.86,0,0,0-2.64-.45l-1,0-.72.05a2.41,2.41,0,0,1-.59,0,2.09,2.09,0,0,1,.58-.12c.2,0,.44-.08.72-.1l1,0a13.79,13.79,0,0,1,2.7.37,26.29,26.29,0,0,1,3.42,1.14c2.48,1,5.27,2.52,8.63,3.44s7.29.49,11.11-.74,7.37-2.89,10.89-3.48a28.51,28.51,0,0,1,9.36,0,31,31,0,0,1,6.1,1.58c.7.26,1.24.49,1.59.66A2.07,2.07,0,0,1,282.47,439.36Z" style="fill:#e0e0e0"></path><path d="M276.56,449.83s-.14.16-.45.42-.76.66-1.37,1.13a39.13,39.13,0,0,1-5.48,3.59,29.22,29.22,0,0,1-9.17,3.18,21.87,21.87,0,0,1-11.77-1.23c-3.95-1.61-7.24-4-10.4-5.75a24.16,24.16,0,0,0-8.94-3.35,12.86,12.86,0,0,0-6.35.73,17.4,17.4,0,0,0-2.11,1.09,6.83,6.83,0,0,1,2-1.27,12.76,12.76,0,0,1,6.47-.9,24.14,24.14,0,0,1,9.12,3.3c3.2,1.76,6.49,4.12,10.36,5.69A21.72,21.72,0,0,0,260,457.7a29.49,29.49,0,0,0,9.08-3,44.06,44.06,0,0,0,5.52-3.43l1.43-1.05A2.3,2.3,0,0,1,276.56,449.83Z" style="fill:#e0e0e0"></path></g><path d="M287.41,438a10.29,10.29,0,1,1-14,3.27A10.18,10.18,0,0,1,287.41,438Z" style="fill:#ebebeb"></path><path d="M282.08,438.49a2.36,2.36,0,0,1,.46.13c.29.1.73.27,1.27.51a19,19,0,0,1,1.94,1A8.42,8.42,0,0,1,288,442a5.93,5.93,0,0,1,1.36,3.25,9.6,9.6,0,0,1-.5,4,7.57,7.57,0,0,1-2.55,3.68,6.35,6.35,0,0,1-4.67,1.05,11,11,0,0,1-4.51-1.65,5.75,5.75,0,0,1-2.61-3.63,8.41,8.41,0,0,1,.32-4,13.79,13.79,0,0,1,1.41-3.22,6.28,6.28,0,0,1,4-3,4.23,4.23,0,0,1,1.38-.06,1.6,1.6,0,0,1,.47.12,5.59,5.59,0,0,0-5.54,3.13,14.21,14.21,0,0,0-1.32,3.15,8.06,8.06,0,0,0-.26,3.83,5.28,5.28,0,0,0,2.43,3.32,10.64,10.64,0,0,0,4.3,1.57,6,6,0,0,0,4.32-1,7.21,7.21,0,0,0,2.41-3.44,9.22,9.22,0,0,0,.52-3.82,5.68,5.68,0,0,0-1.22-3.08,8.23,8.23,0,0,0-2.12-1.83c-.71-.45-1.34-.79-1.87-1.06C282.67,438.77,282.06,438.53,282.08,438.49Z" style="fill:#e0e0e0"></path><path d="M283.06,441.27s.09-.07.3,0a1.4,1.4,0,0,1,.7.49,4.25,4.25,0,0,1,.66,1.15l.71,1.57c.25.59.56,1.21.82,1.94a3.38,3.38,0,0,1,.06,2.49,3.32,3.32,0,0,1-2.1,1.8,5.08,5.08,0,0,1-2.94-.1,7.06,7.06,0,0,1-2.61-1.35,2.71,2.71,0,0,1-.78-1.24,3.25,3.25,0,0,1-.07-1.38,16.24,16.24,0,0,1,.6-2.36,6.9,6.9,0,0,1,.92-1.93,3.19,3.19,0,0,1,2.68-1.42,2,2,0,0,1,.82.21c.17.1.24.17.23.18a3.48,3.48,0,0,0-1.05-.2,3.07,3.07,0,0,0-2.39,1.43,11.57,11.57,0,0,0-1.36,4.15,2.35,2.35,0,0,0,.73,2.2,6.59,6.59,0,0,0,2.42,1.23,4.58,4.58,0,0,0,2.66.11,2.87,2.87,0,0,0,1.83-1.5,3.11,3.11,0,0,0,0-2.19c-.22-.7-.52-1.34-.75-1.93s-.45-1.11-.64-1.6a4.47,4.47,0,0,0-.56-1.14,1.45,1.45,0,0,0-.57-.51C283.17,441.27,283.07,441.29,283.06,441.27Z" style="fill:#e0e0e0"></path><path d="M227.67,458.16s0-.29,0-.83,0-1.36,0-2.39c0-2.12,0-5.19,0-9.15,0-7.94-.07-19.39-.11-33.53s-.06-31-.1-49.64c0-4.66,0-9.45,0-14.33q0-3.68,0-7.41v-3.76a19.08,19.08,0,0,0-.26-3.71,13.24,13.24,0,0,0-3.51-6.53,15,15,0,0,0-3-2.27,14.28,14.28,0,0,0-3.59-1.3,13,13,0,0,0-7.6.74,14.15,14.15,0,0,0-3.32,2,13.21,13.21,0,0,0-2.59,2.94,12.73,12.73,0,0,0-1.83,4.54,25.06,25.06,0,0,0-.24,4.92v9.89q0,9.79,0,19.18c0,12.5,0,24.4,0,35.48,0,22.16-.08,41.08-.11,55.13l-.18-.18,19.56.1,5.23.05h1.36l.47,0-.43,0-1.33,0-5.19,0-19.67.11h-.18v-.19c0-14.05-.07-33-.11-55.13,0-11.08,0-23,0-35.48q0-9.37,0-19.18v-9.89a27,27,0,0,1,.25-5.05,13.64,13.64,0,0,1,1.92-4.77,14.34,14.34,0,0,1,2.72-3.09,14.77,14.77,0,0,1,3.5-2.13,14.57,14.57,0,0,1,3.95-1,14.72,14.72,0,0,1,4,.21,14.57,14.57,0,0,1,3.77,1.37,15.14,15.14,0,0,1,3.18,2.39,14.44,14.44,0,0,1,2.34,3.17,14.77,14.77,0,0,1,1.34,3.68,18.63,18.63,0,0,1,.27,3.85v11.2q0,7.37,0,14.39c0,18.72-.06,35.59-.09,49.76S227.8,438,227.77,446c0,3.92,0,7-.05,9.07,0,1,0,1.8,0,2.35S227.67,458.16,227.67,458.16Z" style="fill:#ebebeb"></path><path d="M254.66,458.16s0-.29,0-.83,0-1.36,0-2.39c0-2.12,0-5.19-.05-9.15,0-7.94-.06-19.39-.11-33.53s-.06-31-.09-49.64c0-4.66,0-9.45,0-14.33V337.12a18.33,18.33,0,0,0-.27-3.71,14.68,14.68,0,0,0-1.27-3.5,14.4,14.4,0,0,0-2.24-3,14.72,14.72,0,0,0-3-2.27,14.28,14.28,0,0,0-3.59-1.3,14.51,14.51,0,0,0-3.84-.2,14.33,14.33,0,0,0-3.75.94,14,14,0,0,0-3.33,2,13.47,13.47,0,0,0-2.59,2.94,13.11,13.11,0,0,0-1.83,4.54,25.85,25.85,0,0,0-.24,4.92v9.89q0,9.79,0,19.18c0,12.5,0,24.4,0,35.48,0,22.16-.08,41.08-.1,55.13L228,458l19.57.1,5.23.05h1.35l.48,0-.44,0-1.32,0-5.2,0-19.67.11h-.18v-.19c0-14.05-.06-33-.11-55.13,0-11.08,0-23,0-35.48V348.37c0-3.27,0-6.56,0-9.89a26.16,26.16,0,0,1,.26-5.05,13.64,13.64,0,0,1,1.92-4.77,13.82,13.82,0,0,1,2.72-3.09,13.66,13.66,0,0,1,11.47-2.9,14.31,14.31,0,0,1,3.77,1.37,14.64,14.64,0,0,1,3.18,2.39,14.81,14.81,0,0,1,2.35,3.17,15.15,15.15,0,0,1,1.33,3.68,19.36,19.36,0,0,1,.28,3.85v3.77q0,3.75,0,7.43,0,7.37,0,14.39c0,18.72-.07,35.59-.1,49.76s-.08,25.55-.11,33.48c0,3.92,0,7-.05,9.07,0,1,0,1.8,0,2.35S254.66,458.16,254.66,458.16Z" style="fill:#ebebeb"></path><path d="M281.64,458.16s0-.29,0-.83,0-1.36,0-2.39c0-2.12,0-5.19,0-9.15,0-7.94-.06-19.39-.11-33.53s-.05-31-.09-49.64c0-4.66,0-9.45,0-14.33q0-3.68,0-7.41v-3.76a18.33,18.33,0,0,0-.27-3.71,14.26,14.26,0,0,0-1.27-3.5,14.06,14.06,0,0,0-2.24-3,14.72,14.72,0,0,0-3-2.27,14.14,14.14,0,0,0-3.59-1.3,14.51,14.51,0,0,0-3.84-.2,12.91,12.91,0,0,0-7.08,3,13.47,13.47,0,0,0-2.59,2.94,12.9,12.9,0,0,0-1.82,4.54,25.85,25.85,0,0,0-.25,4.92v9.89q0,9.79,0,19.18c0,12.5,0,24.4,0,35.48-.05,22.16-.08,41.08-.11,55.13L255,458l19.56.1,5.23.05h1.36l.47,0-.44,0-1.32,0-5.19,0-19.67.11h-.19v-.19c0-14.05-.06-33-.1-55.13,0-11.08,0-23,0-35.48q0-9.37,0-19.18v-9.89a25.38,25.38,0,0,1,.25-5.05,13.64,13.64,0,0,1,1.92-4.77,14.07,14.07,0,0,1,2.72-3.09,13.66,13.66,0,0,1,11.47-2.9,14.31,14.31,0,0,1,3.77,1.37,14.94,14.94,0,0,1,3.19,2.39,15.11,15.11,0,0,1,2.34,3.17,14.74,14.74,0,0,1,1.33,3.68,19.36,19.36,0,0,1,.28,3.85v3.77q0,3.75,0,7.43,0,7.37,0,14.39c0,18.72-.07,35.59-.1,49.76s-.08,25.55-.1,33.48c0,3.92,0,7-.05,9.07,0,1,0,1.8,0,2.35S281.64,458.16,281.64,458.16Z" style="fill:#ebebeb"></path><path d="M308.62,458.16s0-.29,0-.83,0-1.36,0-2.39c0-2.12,0-5.19,0-9.15,0-7.94-.07-19.39-.11-33.53s-.06-31-.1-49.64c0-4.66,0-9.45,0-14.33q0-3.68,0-7.41v-3.76a18.33,18.33,0,0,0-.27-3.71,13.86,13.86,0,0,0-1.27-3.5,14.36,14.36,0,0,0-2.23-3,15.28,15.28,0,0,0-3-2.27,14.28,14.28,0,0,0-3.59-1.3A13,13,0,0,0,287,326.08,13.42,13.42,0,0,0,284.4,329a12.73,12.73,0,0,0-1.83,4.54,25.06,25.06,0,0,0-.24,4.92v9.89q0,9.79,0,19.18c0,12.5,0,24.4,0,35.48,0,22.16-.08,41.08-.11,55.13L282,458l19.56.1,5.23.05h1.36l.47,0-.43,0-1.33,0-5.19,0-19.67.11h-.19v-.19c0-14.05-.06-33-.1-55.13,0-11.08,0-23,0-35.48q0-9.37,0-19.18v-9.89a26.15,26.15,0,0,1,.25-5.05,13.64,13.64,0,0,1,1.92-4.77,14.34,14.34,0,0,1,2.72-3.09,13.52,13.52,0,0,1,7.44-3.11,14.77,14.77,0,0,1,4,.21,14.57,14.57,0,0,1,3.77,1.37,15.14,15.14,0,0,1,3.18,2.39,13.75,13.75,0,0,1,3.68,6.85,18.63,18.63,0,0,1,.27,3.85v11.2q0,7.37,0,14.39c0,18.72-.07,35.59-.09,49.76s-.08,25.55-.11,33.48c0,3.92,0,7-.05,9.07l0,2.35C308.64,457.91,308.62,458.16,308.62,458.16Z" style="fill:#ebebeb"></path><path d="M335.61,458.16s0-.29,0-.83,0-1.36,0-2.39c0-2.12,0-5.19-.05-9.15,0-7.94-.06-19.39-.11-33.53s-.06-31-.09-49.64c0-4.66,0-9.45,0-14.33v-7.41c0-1.24,0-2.5,0-3.76a18.33,18.33,0,0,0-.26-3.71,14.68,14.68,0,0,0-1.27-3.5,14.4,14.4,0,0,0-2.24-3,14.72,14.72,0,0,0-3-2.27,14.28,14.28,0,0,0-3.59-1.3,13,13,0,0,0-7.6.74,14.15,14.15,0,0,0-3.32,2,13.06,13.06,0,0,0-4.42,7.48,25.06,25.06,0,0,0-.24,4.92v9.89q0,9.79,0,19.18c0,12.5,0,24.4,0,35.48,0,22.16-.08,41.08-.1,55.13L309,458l19.57.1,5.23.05h1.35l.48,0-.44,0-1.33,0-5.19,0-19.67.11h-.18v-.19c0-14.05-.07-33-.11-55.13,0-11.08,0-23,0-35.48q0-9.37,0-19.18v-9.89a26.16,26.16,0,0,1,.26-5.05,13.62,13.62,0,0,1,1.91-4.77,14.34,14.34,0,0,1,2.72-3.09,15,15,0,0,1,3.5-2.13,13.78,13.78,0,0,1,8-.77,14.31,14.31,0,0,1,3.77,1.37,14.64,14.64,0,0,1,3.18,2.39,14.81,14.81,0,0,1,2.35,3.17,15.15,15.15,0,0,1,1.33,3.68,19.36,19.36,0,0,1,.28,3.85c0,1.26,0,2.52,0,3.77v7.43q0,7.37,0,14.39c0,18.72-.07,35.59-.1,49.76S335.73,438,335.7,446c0,3.92,0,7-.05,9.07,0,1,0,1.8,0,2.35S335.61,458.16,335.61,458.16Z" style="fill:#ebebeb"></path><path d="M335.61,336.53c0,.18-30,.33-67,.33s-67-.15-67-.33,30-.33,67-.33S335.61,336.35,335.61,336.53Z" style="fill:#ebebeb"></path><polygon points="416.72 276.9 122.39 276.9 122.28 239.99 416.14 239.99 416.72 276.9" style="fill:#f5f5f5"></polygon><polygon points="156.71 280.56 382.4 288.75 382.4 277.32 156.71 277.32 156.71 280.56" style="fill:#e0e0e0"></polygon><path d="M417.19,277.32c0,.18-66,.33-147.45.33s-147.46-.15-147.46-.33,66-.33,147.46-.33S417.19,277.14,417.19,277.32Z" style="fill:#e0e0e0"></path><path d="M193.56,346.07c0,.19-8.3.33-18.54.33s-18.55-.14-18.55-.33,8.3-.33,18.55-.33S193.56,345.89,193.56,346.07Z" style="fill:#e0e0e0"></path><path d="M177.57,362.32c0,.18-4.72.33-10.55.33s-10.55-.15-10.55-.33S161.19,362,167,362,177.57,362.14,177.57,362.32Z" style="fill:#e0e0e0"></path><path d="M371.17,369.32c0,.18-4.72.33-10.55.33s-10.55-.15-10.55-.33,4.72-.33,10.55-.33S371.17,369.14,371.17,369.32Z" style="fill:#e0e0e0"></path><path d="M193,325.86c0,.18-8.3.33-18.55.33s-18.54-.15-18.54-.33,8.3-.33,18.54-.33S193,325.67,193,325.86Z" style="fill:#e0e0e0"></path><path d="M175.86,345.8c-.18,0-.33-4.28-.33-9.56s.15-9.55.33-9.55.33,4.27.33,9.55S176,345.8,175.86,345.8Z" style="fill:#e0e0e0"></path><path d="M382.4,386.15c0,.18-7.13.32-15.93.32s-15.94-.14-15.94-.32,7.13-.33,15.94-.33S382.4,386,382.4,386.15Z" style="fill:#e0e0e0"></path><path d="M375,403c-.18,0-.33-3.76-.33-8.4s.15-8.4.33-8.4.33,3.76.33,8.4S375.19,403,375,403Z" style="fill:#e0e0e0"></path><path d="M380.11,403c0,.18-6.67.33-14.88.33s-14.89-.15-14.89-.33,6.67-.33,14.89-.33S380.11,402.76,380.11,403Z" style="fill:#e0e0e0"></path><path d="M382.4,300.18c0,.19-50.58.33-113,.33s-113-.14-113-.33,50.57-.33,113-.33S382.4,300,382.4,300.18Z" style="fill:#e0e0e0"></path><path d="M382.4,285.12c0,.19-12.81.33-28.6.33s-28.61-.14-28.61-.33,12.81-.33,28.61-.33S382.4,284.94,382.4,285.12Z" style="fill:#e0e0e0"></path><path d="M337.77,300.69c-.18,0-.33-3.48-.33-7.77s.15-7.76.33-7.76.33,3.47.33,7.76S338,300.69,337.77,300.69Z" style="fill:#e0e0e0"></path><path d="M372.47,300.69c-.18,0-.33-3.48-.33-7.77s.15-7.76.33-7.76.33,3.47.33,7.76S372.65,300.69,372.47,300.69Z" style="fill:#e0e0e0"></path><rect x="145.06" y="456.63" width="253.18" height="17.85" style="fill:#f5f5f5"></rect><path d="M215.76,258.77c0,.17-20.93.32-46.74.32s-46.74-.15-46.74-.32,20.92-.32,46.74-.32S215.76,258.59,215.76,258.77Z" style="fill:#e0e0e0"></path><path d="M305.78,258.77c0,.17-20.93.32-46.75.32s-46.74-.15-46.74-.32,20.92-.32,46.74-.32S305.78,258.59,305.78,258.77Z" style="fill:#e0e0e0"></path><path d="M398.49,258.77c0,.17-20.93.32-46.74.32s-46.74-.15-46.74-.32,20.92-.32,46.74-.32S398.49,258.59,398.49,258.77Z" style="fill:#e0e0e0"></path><path d="M183.73,258.5c-.18,0-.33-4.16-.33-9.3s.15-9.29.33-9.29.33,4.16.33,9.29S183.91,258.5,183.73,258.5Z" style="fill:#e0e0e0"></path><path d="M162.51,277.06c-.18,0-.32-4.16-.32-9.29s.14-9.29.32-9.29.33,4.16.33,9.29S162.7,277.06,162.51,277.06Z" style="fill:#e0e0e0"></path><path d="M230.48,259.74c-.18,0-.33-4.16-.33-9.29s.15-9.3.33-9.3.33,4.16.33,9.3S230.66,259.74,230.48,259.74Z" style="fill:#e0e0e0"></path><path d="M283.23,258.5c-.18,0-.33-4.16-.33-9.3s.15-9.29.33-9.29.32,4.16.32,9.29S283.41,258.5,283.23,258.5Z" style="fill:#e0e0e0"></path><path d="M330.31,258.49c-.18,0-.33-4.16-.33-9.29s.15-9.3.33-9.3.33,4.16.33,9.3S330.49,258.49,330.31,258.49Z" style="fill:#e0e0e0"></path><path d="M372.6,258.5c-.18,0-.33-4.16-.33-9.3s.15-9.29.33-9.29.33,4.16.33,9.29S372.78,258.5,372.6,258.5Z" style="fill:#e0e0e0"></path><path d="M207.75,277.06c-.18,0-.33-4.16-.33-9.29s.15-9.29.33-9.29.33,4.16.33,9.29S207.94,277.06,207.75,277.06Z" style="fill:#e0e0e0"></path><path d="M250.34,277.06c-.18,0-.33-4.16-.33-9.29s.15-9.29.33-9.29.33,4.16.33,9.29S250.52,277.06,250.34,277.06Z" style="fill:#e0e0e0"></path><path d="M295.58,277.06c-.18,0-.33-4.16-.33-9.29s.15-9.29.33-9.29.33,4.16.33,9.29S295.76,277.06,295.58,277.06Z" style="fill:#e0e0e0"></path><path d="M344.22,277.06c-.18,0-.32-4.16-.32-9.29s.14-9.29.32-9.29.33,4.16.33,9.29S344.41,277.06,344.22,277.06Z" style="fill:#e0e0e0"></path><path d="M389.46,277.06c-.18,0-.33-4.16-.33-9.29s.15-9.29.33-9.29.33,4.16.33,9.29S389.65,277.06,389.46,277.06Z" style="fill:#e0e0e0"></path><path d="M137.87,258.5c-.18,0-.33-4.16-.33-9.3s.15-9.29.33-9.29.33,4.16.33,9.29S138.05,258.5,137.87,258.5Z" style="fill:#e0e0e0"></path><path d="M398.23,456.63c0,.18-56.69.33-126.61.33S145,456.81,145,456.63s56.68-.33,126.63-.33S398.23,456.45,398.23,456.63Z" style="fill:#e0e0e0"></path><polygon points="153.22 66.58 153.22 142.77 43.8 142.77 39.85 67.12 153.22 66.58" style="fill:#e0e0e0"></polygon><rect x="56.82" y="50.15" width="75.49" height="109.42" transform="translate(-10.3 199.43) rotate(-90)" style="fill:#f5f5f5"></rect><path d="M149.79,143.13H39.33V66.6H149.79Zm-109.42-1H148.75V67.64H40.37Z" style="fill:#e0e0e0"></path><rect x="51.7" y="76.5" width="85.72" height="56.73" style="fill:#fff"></rect><path d="M137.42,76.5h-1.64l-4.71,0-17.66.06-61.71.12L52,76.5c0,17.33,0,36.53,0,56.72h0L51.7,133l85.72,0-.21.22c0-17.27.08-31.42.11-41.28,0-4.93,0-8.78.06-11.41,0-1.31,0-2.31,0-3s0-1,0-1,0,.33,0,1,0,1.67,0,3c0,2.63,0,6.46.05,11.37,0,9.89.07,24.09.12,41.41v.21h-.22l-85.72.06h-.27v-.27h0c0-20.19,0-39.39,0-56.72v-.25h.24l61.87.12,17.61.07,4.66,0H137Z" style="fill:#e0e0e0"></path><path d="M39.85,66.9a10.2,10.2,0,0,1,1.88,1.22c1.12.81,2.65,2,4.29,3.27s3.1,2.57,4.12,3.5A8.5,8.5,0,0,1,51.7,76.5c-.1.11-2.73-2.06-6-4.68A59.12,59.12,0,0,1,39.85,66.9Z" style="fill:#e0e0e0"></path><path d="M149.27,67.12a52.92,52.92,0,0,1-5.75,4.9,54,54,0,0,1-6.1,4.48,52.92,52.92,0,0,1,5.76-4.91A52.11,52.11,0,0,1,149.27,67.12Z" style="fill:#e0e0e0"></path><path d="M149.19,142.62,137,132.73" style="fill:#fff"></path><path d="M137,132.73a56.9,56.9,0,0,1,6.27,4.73,56.62,56.62,0,0,1,5.93,5.16,58.31,58.31,0,0,1-6.27-4.74A56,56,0,0,1,137,132.73Z" style="fill:#e0e0e0"></path><path d="M39.85,142.61a51.78,51.78,0,0,1,5.7-4.85,51.13,51.13,0,0,1,6-4.43,50,50,0,0,1-5.69,4.85A52.57,52.57,0,0,1,39.85,142.61Z" style="fill:#e0e0e0"></path><rect x="86.58" y="76.7" width="19" height="53.94" transform="translate(-7.59 199.75) rotate(-90)" style="fill:#e0e0e0"></rect><path d="M41.8,384A32.31,32.31,0,0,0,28,379.24c-2.27-.23-4.74-.17-6.55,1.2a1.32,1.32,0,0,0-.67,1.2,1.38,1.38,0,0,0,.64.81c5.63,4.3,14.14,4.84,20.42,1.55" style="fill:#e0e0e0"></path><path d="M41.44,383.61a68.33,68.33,0,0,1-8.94-7.87,22.58,22.58,0,0,1-5.6-10.36,4.18,4.18,0,0,1,.44-3.47c7.13,5.57,12.72,12.76,14.1,21.7" style="fill:#e0e0e0"></path><path d="M41.72,384a32.16,32.16,0,0,1,.17-11.74,15.83,15.83,0,0,1,6.25-9.68c1.23,2.88.7,6.19-.17,9.2a44.61,44.61,0,0,1-6.2,13" style="fill:#e0e0e0"></path><path d="M48.71,396.46c-4.24.52-7.94,2.75-11.1,5.62A21,21,0,0,0,31.26,413c4.16-.26,7.69-3.19,10.25-6.48s4.33-6.9,7.14-10" style="fill:#e0e0e0"></path><path d="M50.22,398.46a27.41,27.41,0,0,1,3.16-25.89c2.42,8.59,1.53,18.3-3.16,25.89" style="fill:#e0e0e0"></path><path d="M59.45,409.45a19.81,19.81,0,0,0-18.92,10.9c-.24.47-.45,1.06-.13,1.48a1.38,1.38,0,0,0,1.25.37c3.73-.24,7-2.48,9.77-5s5.1-5.51,8.12-7.72" style="fill:#e0e0e0"></path><path d="M59.16,408.86a35.21,35.21,0,0,1-.35-19.7c.69-2.53,1.85-5.2,4.2-6.39a.82.82,0,0,1,.64-.11.86.86,0,0,1,.41.47,12,12,0,0,1,1,5.65,35.81,35.81,0,0,1-.89,5.72c-.74,3.49-1.13,7.25-3,10.26A21.3,21.3,0,0,0,59.9,407c-.37.77-.37,1-.7,1.64" style="fill:#e0e0e0"></path><path d="M83.59,412.5c-1.81-6.89.11-15.24,4.45-20.88.32-.42.74-.86,1.26-.81.8.07,1,1.14,1,1.94a37.75,37.75,0,0,1-6.68,19.75" style="fill:#e0e0e0"></path><path d="M85.79,414a30.36,30.36,0,0,0,24.92-5.07,20.19,20.19,0,0,0-13.49-1.65c-4.51,1-8.63,3.05-11.43,6.72" style="fill:#e0e0e0"></path><path d="M87.65,409.42c4.68-7.64,13.66-12.63,22.61-13.08-1,3.64-4,6.47-7.4,8.18S95.72,407,92,407.69c-1.45.28-3.43.59-4.36,1.73" style="fill:#e0e0e0"></path><path d="M84.05,387.17a65,65,0,0,0,2.89-13.24,22.05,22.05,0,0,0-2.63-13.1c-4.38,8.47-4.82,18.36-.39,26.8" style="fill:#e0e0e0"></path><path d="M98.78,379.73c5.12-9.3,15.56-16.73,26.13-17.77-4.08,10.14-15.19,18-26.13,17.77" style="fill:#e0e0e0"></path><path d="M95.57,381.55c7.63,1.16,14.13,6,21.26,9a9.5,9.5,0,0,0,4.81.92,4.17,4.17,0,0,0,3.62-2.92A4.22,4.22,0,0,0,124,384.8a10,10,0,0,0-3.49-2.11c-7.77-3.24-16.1-3.32-24.28-1.36" style="fill:#e0e0e0"></path><path d="M91.15,386.9c1.73.5,2.32,1.39,3.69,2.56A39.75,39.75,0,0,0,111,397.74c.62.15,1.43.21,1.73-.34s-.07-1.08-.42-1.51a22.24,22.24,0,0,0-9.73-6.61c-3.72-1.39-7-3.06-11.39-2.7" style="fill:#e0e0e0"></path><path d="M86.17,354.57a30.45,30.45,0,0,0,23.39,8,1.54,1.54,0,0,0,1.07-.38c.59-.64-.12-1.63-.81-2.16-6.87-5.37-15.21-7.59-23.65-5.42" style="fill:#e0e0e0"></path><path d="M92.07,352.41a32.65,32.65,0,0,1,29.2-4.82,23.13,23.13,0,0,1-13.91,6.11,43.83,43.83,0,0,1-15.29-1.29" style="fill:#e0e0e0"></path><path d="M89.73,337.56c-.68-6.87-.24-12.29-.72-19.19,0-.55-.15-1.21-.67-1.41-.72-.28-1.32.61-1.55,1.34a22,22,0,0,0,2.93,19.11" style="fill:#e0e0e0"></path><path d="M89.23,338.32a40.35,40.35,0,0,0,11.38-11.06c2.24-3.07,4.14-6.76,3.63-10.53A10.89,10.89,0,0,0,96,320.81a22.84,22.84,0,0,0-4.18,8.41c-.91,3-1.55,6.13-2.62,9.1" style="fill:#e0e0e0"></path><path d="M100.41,335.21a91.8,91.8,0,0,0,28-16.5c-3.35-1.35-7.18-.54-10.52.8a33.22,33.22,0,0,0-17.62,15.63" style="fill:#e0e0e0"></path><path d="M92.37,342.07a57,57,0,0,0,15.55.08c5-.84,9.8-2.84,14.51-4.82a1.74,1.74,0,0,0,1-.75,1.12,1.12,0,0,0-.35-1.24,3,3,0,0,0-1.24-.58c-5.12-1.44-10.64-.77-15.68.93a72.9,72.9,0,0,0-13.77,6.38" style="fill:#e0e0e0"></path><path d="M62.87,354.81c-3.53-7.12-3.3-15.42-.25-22.75,2.14,3.26,2.4,7.42,2,11.31s-1.57,7.89-1.65,11.79" style="fill:#e0e0e0"></path><path d="M48.79,347.71a31.76,31.76,0,0,0-23.59,10,22.06,22.06,0,0,0,12.92-2.39A65.72,65.72,0,0,0,49.18,348" style="fill:#e0e0e0"></path><path d="M39.32,344.54c-4.31-.35-8.45-.88-12.59.39a15,15,0,0,0-9.59,8.13,22.62,22.62,0,0,0,11.8-2.23,67.83,67.83,0,0,0,10.38-6.29" style="fill:#e0e0e0"></path><path d="M53.34,344.68c-3.88-2.53-7.85-5.12-12.36-6.17s-9.74-.27-12.89,3.13c3.66,2.14,8.09,2.39,12.32,2.39s9.42,0,13.41,1.36" style="fill:#e0e0e0"></path><path d="M53.36,344.89c-6.62-6.5-9.13-18.18-6.47-27.08a41.23,41.23,0,0,1,6.47,27.08" style="fill:#e0e0e0"></path><path d="M71.57,326.46c1.25-2.9,2.13-5.95,3.25-8.9a25.52,25.52,0,0,1,4.63-8.21,12.13,12.13,0,0,1,8.2-4.25,33,33,0,0,1-15.92,21.41" style="fill:#e0e0e0"></path><path d="M68.27,330.3c-2.06-2.84-4.45-6.7-7.25-8.83s-6.45-3.4-9.88-2.59A23,23,0,0,0,68.27,330.3" style="fill:#e0e0e0"></path><path d="M68.93,326.7a48.86,48.86,0,0,1-3.26-10.58,16.51,16.51,0,0,1,1.65-10.76c3.64,6.88,4.81,14.25,1.8,21.42" style="fill:#e0e0e0"></path><path d="M71.6,305.36c2.06-6.81,8.3-11.82,15-14.12a5.59,5.59,0,0,1,2.64-.4,2.28,2.28,0,0,1,1.94,1.62c.25,1.16-.71,2.2-1.61,3a51,51,0,0,1-18,9.93" style="fill:#e0e0e0"></path><path d="M71.68,299.79c.26-4.39.53-8.84,2-13s4.18-8.07,8.19-9.89c.68,4.43-1.28,8.85-3.64,12.66S73,297,71.57,301.24" style="fill:#e0e0e0"></path><path d="M71.57,302.82c-1.7-5-1.88-11.27-4.85-15.6-2.08-3-5.41-5.08-7.2-8.28a12.61,12.61,0,0,0,.42,9.4,27.36,27.36,0,0,0,5.5,7.88c2.2,2.34,4.08,4.11,6.13,6.6" style="fill:#e0e0e0"></path><path d="M71.6,449c-.13,0-.24-33.11-.25-74s.09-74,.22-74,.25,33.11.26,74S71.74,449,71.6,449Z" style="fill:#e0e0e0"></path><path d="M100.54,349.81a6.82,6.82,0,0,1-1.24.47l-3.43,1.16c-2.89,1-6.86,2.4-11.16,4.17s-8.29,3.32-10.58,5.3A7.82,7.82,0,0,0,72,363.72c-.33.78-.39,1.26-.43,1.25s0-.12,0-.35a5.26,5.26,0,0,1,.25-1,7.46,7.46,0,0,1,2.07-3,18.43,18.43,0,0,1,4.59-2.85c1.84-.86,3.87-1.75,6-2.64,4.32-1.77,8.32-3.15,11.25-4.06,1.46-.45,2.65-.79,3.47-1A7,7,0,0,1,100.54,349.81Z" style="fill:#e0e0e0"></path><path d="M110,326.51a2.17,2.17,0,0,1-.35.37l-1.06,1-4,3.61-13.2,11.75c-5.16,4.59-9.61,9-12.7,12.28-1.55,1.64-2.76,3-3.59,4l-1,1.1a1.87,1.87,0,0,1-.36.36,2.11,2.11,0,0,1,.28-.42c.2-.27.5-.67.89-1.16.79-1,2-2.39,3.49-4.07a164.53,164.53,0,0,1,12.63-12.4c5.17-4.58,9.88-8.69,13.3-11.66l4.06-3.49,1.13-.93A2.2,2.2,0,0,1,110,326.51Z" style="fill:#e0e0e0"></path><path d="M85.88,347.91c-.13-.06.94-2.55,2-5.69s1.59-5.8,1.73-5.78a19.48,19.48,0,0,1-1.28,5.93,40.6,40.6,0,0,1-1.6,4A6.34,6.34,0,0,1,85.88,347.91Z" style="fill:#e0e0e0"></path><path d="M71.63,368a7,7,0,0,1-.79-.92l-2-2.61c-1.7-2.21-4.07-5.26-6.72-8.6s-5.08-6.33-6.84-8.49c-.84-1-1.53-1.89-2.08-2.58a5.44,5.44,0,0,1-.72-1,6.73,6.73,0,0,1,.86.86c.53.58,1.28,1.42,2.2,2.48,1.83,2.11,4.31,5.08,7,8.42s5,6.42,6.62,8.69c.82,1.13,1.47,2,1.91,2.7A5.64,5.64,0,0,1,71.63,368Z" style="fill:#e0e0e0"></path><path d="M65.29,359.81a11.74,11.74,0,0,1-2.66-5,14.32,14.32,0,0,1-.6-5l.21,0a1.72,1.72,0,0,1-.2.58s0-.22,0-.62l.21,0a22.84,22.84,0,0,0,.85,4.88A37.19,37.19,0,0,0,65.29,359.81Z" style="fill:#e0e0e0"></path><path d="M57.1,349.5a9.22,9.22,0,0,0-1.86-1.08,12.5,12.5,0,0,0-5.15-.41,31.94,31.94,0,0,0-5.19.84,13.86,13.86,0,0,1-2.14.51,8,8,0,0,1,2.05-.84,23.46,23.46,0,0,1,5.24-1,11.28,11.28,0,0,1,5.32.57A3.29,3.29,0,0,1,57.1,349.5Z" style="fill:#e0e0e0"></path><path d="M55.15,347c0,.08-1.08-.43-2.84-1A28.58,28.58,0,0,0,38,344.88c-1.83.32-2.94.67-3,.59a2.56,2.56,0,0,1,.76-.32,16.9,16.9,0,0,1,2.14-.61,25.35,25.35,0,0,1,14.52,1.11,18.63,18.63,0,0,1,2,.92C54.92,346.82,55.17,347,55.15,347Z" style="fill:#e0e0e0"></path><path d="M71.57,336.44a56.79,56.79,0,0,1-2.07-7.2,57.94,57.94,0,0,1-1.61-7.32,61.77,61.77,0,0,1,2.07,7.2A57.94,57.94,0,0,1,71.57,336.44Z" style="fill:#e0e0e0"></path><path d="M71.7,336.44a34.34,34.34,0,0,0-2.3-4.31A18.65,18.65,0,0,0,66,328.64a3.22,3.22,0,0,1,1.31.67,10.59,10.59,0,0,1,2.47,2.55A9.52,9.52,0,0,1,71.7,336.44Z" style="fill:#e0e0e0"></path><path d="M71.6,431.36s-.15-.8-.52-2.2a31.2,31.2,0,0,0-2.21-5.74,79.62,79.62,0,0,0-11.74-16.54c-2.62-3-5.17-5.82-7.33-8.53a58.88,58.88,0,0,1-5.23-7.55,36.19,36.19,0,0,1-2.65-5.6c-.24-.69-.42-1.23-.52-1.61a2.37,2.37,0,0,1-.13-.57s.28.76.83,2.11a40.38,40.38,0,0,0,2.76,5.5,63.26,63.26,0,0,0,5.29,7.45c2.16,2.68,4.71,5.49,7.34,8.49,5.3,5.95,9.45,11.95,11.68,16.7a28.49,28.49,0,0,1,2.09,5.84,13.28,13.28,0,0,1,.29,1.66A2.38,2.38,0,0,1,71.6,431.36Z" style="fill:#e0e0e0"></path><path d="M97.75,401.82a10.17,10.17,0,0,1-1.37.77,28.92,28.92,0,0,0-3.55,2.35,40.07,40.07,0,0,0-4.67,4.26c-1.64,1.73-3.33,3.74-5,5.89-3.44,4.33-6.67,8.15-8.59,11.2-1,1.52-1.7,2.79-2.16,3.69a11.17,11.17,0,0,1-.76,1.38,1.53,1.53,0,0,1,.13-.39c.1-.25.24-.62.46-1.07a35.07,35.07,0,0,1,2-3.79c1.87-3.13,5.07-7,8.51-11.32,1.72-2.15,3.43-4.17,5.1-5.9a37.41,37.41,0,0,1,4.79-4.22,25.72,25.72,0,0,1,3.67-2.25c.45-.22.82-.36,1.07-.47A1.56,1.56,0,0,1,97.75,401.82Z" style="fill:#e0e0e0"></path><path d="M98.27,411.4a19.19,19.19,0,0,1-2.9.42,37.79,37.79,0,0,0-6.87,1.36,20.7,20.7,0,0,0-6.15,3.22c-1.42,1.1-2.09,2-2.16,2a2.51,2.51,0,0,1,.43-.66,11,11,0,0,1,1.51-1.55,18.7,18.7,0,0,1,6.22-3.42,30.94,30.94,0,0,1,7-1.23A16.79,16.79,0,0,1,98.27,411.4Z" style="fill:#e0e0e0"></path><path d="M81,417.3c-.15-.08,1.15-2.08,2.17-4.76s1.17-5.08,1.34-5.05a4.57,4.57,0,0,1,0,1.55,16.56,16.56,0,0,1-.84,3.66A18,18,0,0,1,82,416.06,4.83,4.83,0,0,1,81,417.3Z" style="fill:#e0e0e0"></path><path d="M106.22,376.09a1.81,1.81,0,0,1-.46.25l-1.36.62c-.6.26-1.32.58-2.14,1s-1.77.86-2.76,1.45l-1.59.9c-.54.32-1.09.69-1.66,1.05-1.17.71-2.33,1.58-3.58,2.47A61.37,61.37,0,0,0,78.89,398.1c-.85,1.27-1.68,2.47-2.34,3.66-.34.59-.7,1.14-1,1.7l-.85,1.61c-.56,1-1,2-1.36,2.82s-.7,1.56-.93,2.16-.42,1-.58,1.39a1.91,1.91,0,0,1-.23.47,3.37,3.37,0,0,1,.14-.51l.49-1.41c.21-.62.49-1.37.87-2.21s.75-1.83,1.3-2.86c.26-.52.54-1.07.82-1.64s.64-1.13,1-1.72c.65-1.21,1.48-2.42,2.32-3.71a59,59,0,0,1,13.88-14.37c1.26-.88,2.44-1.75,3.63-2.44.58-.36,1.13-.73,1.69-1l1.6-.87c1-.58,2-1,2.82-1.4s1.57-.71,2.18-.94l1.39-.54A3,3,0,0,1,106.22,376.09Z" style="fill:#e0e0e0"></path><path d="M85.53,390a3.26,3.26,0,0,1,1.13-1.69,7.17,7.17,0,0,1,4.59-1.76,12.56,12.56,0,0,1,4.83.94,6.85,6.85,0,0,1,1.82.89,12.62,12.62,0,0,1-1.94-.57,14.57,14.57,0,0,0-4.69-.78,7.43,7.43,0,0,0-4.38,1.53A13.54,13.54,0,0,0,85.53,390Z" style="fill:#e0e0e0"></path><path d="M82.43,393.15a12.1,12.1,0,0,0,1-8.65c.06,0,.32.42.54,1.23a8.77,8.77,0,0,1-.74,6.35C82.84,392.81,82.48,393.19,82.43,393.15Z" style="fill:#e0e0e0"></path><path d="M48.73,436.1c.71,12.66,4.53,25.53,10.39,38.54H84.63c5.6-12.88,9.15-25.73,9.78-38.54Z" style="fill:#e0e0e0"></path><path d="M90.27,456.58c0,.13-8.39.24-18.75.24s-18.76-.11-18.76-.24,8.4-.24,18.76-.24S90.27,456.45,90.27,456.58Z" style="fill:#fafafa"></path><path d="M89.7,461.17c0,.13-7.87.24-17.58.24s-17.59-.11-17.59-.24,7.88-.24,17.59-.24S89.7,461,89.7,461.17Z" style="fill:#fafafa"></path><path d="M59.54,444.41a72,72,0,0,1,0,11.75,72,72,0,0,1,0-11.75Z" style="fill:#fafafa"></path><path d="M73.2,444.41a77.26,77.26,0,0,1,0,12.17,77.26,77.26,0,0,1,0-12.17Z" style="fill:#fafafa"></path><path d="M86,444.31a80.33,80.33,0,0,1,0,12.41,80.33,80.33,0,0,1,0-12.41Z" style="fill:#fafafa"></path><path d="M93.6,444.41c0,.13-9.85.24-22,.24s-22-.11-22-.24,9.85-.24,22-.24S93.6,444.28,93.6,444.41Z" style="fill:#fafafa"></path><path d="M435.35,284s-7-.5-6.31,15.1S431.27,323,431.27,323s-.2,3.46-2.88,2.78-7.72-4.05-10.21-1.53-1.67,6.61,1.76,11.33,10.55,15.32,11.19,16.28.88,2.72-1,2.55-14.72-4.52-16.42,1.69,10,17.78,11.26,19.06,1.32,2.11.81,2.89-4.68-1.09-8.38-2.18-8.17-1.69-8.85,2,4.47,14.38,23.77,25.65l9.28,4.63,8.79-5.6c18.07-13.14,22.13-24.32,21.09-27.9s-5.44-2.52-9-1.07-7.53,3.73-8.12,3-.59-1.54.52-2.95,11.61-14.09,9.3-20.09-14.63-.4-16.51-.05-1.8-1.42-1.27-2.42,6.57-12.29,9.51-17.33,3.45-9.11.62-11.44-7.41,1.59-10,2.54-3.14-2.48-3.14-2.48.75-8.43-.18-24-8-14.33-8-14.33" style="fill:#ebebeb"></path><path d="M435.9,297.93s0,.11,0,.32,0,.55.08,1c.05.86.14,2.1.25,3.68.21,3.2.48,7.84.8,13.56.63,11.45,1.38,27.28,2.14,44.76s1.47,33.31,2,44.77c.29,5.71.53,10.34.69,13.56.08,1.59.14,2.83.18,3.69,0,.41,0,.73,0,1a2.81,2.81,0,0,1,0,.33l0-.33c0-.23,0-.55-.08-1-.05-.86-.14-2.09-.25-3.68-.21-3.2-.48-7.83-.8-13.56-.64-11.45-1.38-27.28-2.14-44.76s-1.47-33.31-2-44.76c-.29-5.72-.53-10.35-.69-13.57-.08-1.59-.14-2.83-.19-3.69,0-.41,0-.72,0-1S435.9,297.93,435.9,297.93Z" style="fill:#e0e0e0"></path><path d="M425,329.21a3.94,3.94,0,0,1,.58.48c.35.33.86.81,1.47,1.42,1.23,1.21,2.87,2.93,4.66,4.87l4.54,5,1.38,1.5a2.76,2.76,0,0,1,.48.58,3.94,3.94,0,0,1-.58-.48c-.36-.32-.86-.81-1.47-1.42-1.21-1.23-2.83-3-4.62-4.9l-4.57-4.94-1.39-1.49A2.49,2.49,0,0,1,425,329.21Z" style="fill:#e0e0e0"></path><path d="M439.07,342.71c-.07-.07,3.33-3.62,7.58-7.94s7.77-7.76,7.84-7.69-3.32,3.62-7.58,7.94S439.14,342.78,439.07,342.71Z" style="fill:#e0e0e0"></path><path d="M439,369.61a3.77,3.77,0,0,1,.65-.41l1.82-1c1.53-.86,3.64-2.06,5.92-3.46s4.32-2.73,5.78-3.71l1.73-1.16a3.27,3.27,0,0,1,.66-.39,3.32,3.32,0,0,1-.58.51c-.39.3-.95.73-1.67,1.24-1.43,1-3.44,2.41-5.73,3.81s-4.43,2.58-6,3.38c-.79.4-1.43.72-1.88.92A2.85,2.85,0,0,1,439,369.61Z" style="fill:#e0e0e0"></path><path d="M423.65,360.2a2.72,2.72,0,0,1,.65.3c.4.21,1,.53,1.68.93,1.41.81,3.35,1.94,5.48,3.21s4.06,2.43,5.44,3.29l1.62,1a2.47,2.47,0,0,1,.57.42,3,3,0,0,1-.64-.3l-1.68-.94c-1.42-.8-3.36-1.93-5.49-3.2s-4-2.43-5.43-3.29l-1.62-1A3.14,3.14,0,0,1,423.65,360.2Z" style="fill:#e0e0e0"></path><path d="M420.6,383.94a4,4,0,0,1,.82.4l2.16,1.19c1.82,1,4.31,2.45,7.06,4.05s5.23,3.06,7,4.14l2.11,1.29a4.62,4.62,0,0,1,.74.51,4.68,4.68,0,0,1-.81-.39l-2.17-1.2c-1.81-1-4.31-2.45-7.06-4s-5.22-3.07-7-4.14l-2.1-1.29A4.64,4.64,0,0,1,420.6,383.94Z" style="fill:#e0e0e0"></path><path d="M440.1,395.11a5.87,5.87,0,0,1,.81-.54l2.26-1.37c1.9-1.17,4.53-2.78,7.38-4.64s5.39-3.6,7.22-4.87l2.17-1.51a4.89,4.89,0,0,1,.82-.52,4.9,4.9,0,0,1-.74.63c-.49.39-1.21.94-2.11,1.6-1.79,1.33-4.31,3.11-7.17,5s-5.51,3.45-7.44,4.55c-1,.55-1.77,1-2.32,1.28A4.81,4.81,0,0,1,440.1,395.11Z" style="fill:#e0e0e0"></path><polygon points="454.06 411.13 428.37 411.13 436.76 474.58 445.67 474.58 454.06 411.13" style="fill:#e0e0e0"></polygon><path d="M429.71,418.93s0,.09.13.23a1.64,1.64,0,0,0,.62.44,3.11,3.11,0,0,0,2.72-.33c1-.57,1.94-1.7,3.33-2.19a7.23,7.23,0,0,1,4.72.09,20.42,20.42,0,0,1,4.4,2.13,30,30,0,0,0,3.57,1.92,10.06,10.06,0,0,0,2.64.76,4.55,4.55,0,0,0,.75,0,.76.76,0,0,0,.26,0,13.16,13.16,0,0,1-3.53-1.06,37.81,37.81,0,0,1-3.49-2,19.48,19.48,0,0,0-4.48-2.2,7.6,7.6,0,0,0-5-.06,7,7,0,0,0-1.88,1.16A12.26,12.26,0,0,1,433,419a3,3,0,0,1-2.5.44A2.43,2.43,0,0,1,429.71,418.93Z" style="fill:#f5f5f5"></path><path d="M430.64,430.62s.21-.26.61-.68a5.7,5.7,0,0,1,2.05-1.3,9.16,9.16,0,0,1,3.57-.54,37.73,37.73,0,0,1,4.47.61,15.91,15.91,0,0,0,4.58.19,12.7,12.7,0,0,0,3.6-1,11.06,11.06,0,0,0,2.16-1.29,3,3,0,0,0,.69-.62,22,22,0,0,1-3,1.64,13.23,13.23,0,0,1-3.53.91,15.55,15.55,0,0,1-4.46-.22,35.14,35.14,0,0,0-4.53-.58,9.09,9.09,0,0,0-3.69.65,5.3,5.3,0,0,0-2.06,1.47,2.9,2.9,0,0,0-.39.57C430.66,430.54,430.63,430.61,430.64,430.62Z" style="fill:#f5f5f5"></path><path d="M451.15,436.87a2.33,2.33,0,0,0-.71-.36,7.43,7.43,0,0,0-2.13-.46,14.19,14.19,0,0,0-3.22.18c-1.19.2-2.48.53-3.83.82a16.45,16.45,0,0,1-3.82.43,8.28,8.28,0,0,1-3-.66,7,7,0,0,1-2.3-1.71,2,2,0,0,0,.43.67,5.44,5.44,0,0,0,1.75,1.31,8.09,8.09,0,0,0,3.14.77,15.57,15.57,0,0,0,3.93-.4c1.36-.29,2.64-.63,3.81-.85a14.52,14.52,0,0,1,3.13-.26A12.37,12.37,0,0,1,451.15,436.87Z" style="fill:#f5f5f5"></path><path d="M432.91,445.67a4.24,4.24,0,0,1,2.5-.25,11.93,11.93,0,0,1,2.61,1,10,10,0,0,0,3.38.93,10.22,10.22,0,0,0,6.15-1.42,8.67,8.67,0,0,0,1.52-1.18c.32-.33.48-.52.46-.54s-.73.69-2.13,1.46a10.57,10.57,0,0,1-6,1.26c-2.43-.14-4.3-1.59-6-1.78a3.89,3.89,0,0,0-1.94.17A1.36,1.36,0,0,0,432.91,445.67Z" style="fill:#f5f5f5"></path><path d="M434.34,457.85a4.78,4.78,0,0,0,2.14-.42c1.3-.43,2.89-1.42,4.76-2.16a7.79,7.79,0,0,1,2.73-.58,5.2,5.2,0,0,1,2.19.5,5.1,5.1,0,0,1,1.59,1.37s0-.21-.24-.54a3.57,3.57,0,0,0-1.21-1.09,5,5,0,0,0-2.33-.62,7.55,7.55,0,0,0-2.88.56c-1.93.77-3.48,1.79-4.71,2.28S434.33,457.79,434.34,457.85Z" style="fill:#f5f5f5"></path><path d="M435.6,463.52a6.36,6.36,0,0,0,1.63.53,30.32,30.32,0,0,0,4.06.68,29,29,0,0,0,4.12.12,5.71,5.71,0,0,0,1.7-.2c0-.13-2.6,0-5.78-.33S435.63,463.4,435.6,463.52Z" style="fill:#f5f5f5"></path></g><g id="freepik--Floor--inject-118"><path d="M482.77,474.52c0,.14-103.78.26-231.76.26s-231.78-.12-231.78-.26S123,474.26,251,474.26,482.77,474.38,482.77,474.52Z" style="fill:#263238"></path></g><g id="freepik--Hearts--inject-118"><path d="M290.82,139.16a5.56,5.56,0,0,0-1.41-3,5.36,5.36,0,0,0-2.78-1.73,4.41,4.41,0,0,0-3.37.65,4.2,4.2,0,0,0-1.38,1.55,4.51,4.51,0,0,0-1.28-1.4,4.42,4.42,0,0,0-3.37-.68,5.35,5.35,0,0,0-2.79,1.7,5.51,5.51,0,0,0-1.44,3,6.69,6.69,0,0,0,.82,4.16,9.49,9.49,0,0,0,3.28,3.11c2.15,1.31,5,3,5,3s2.4-1.78,4.56-3.07a9.5,9.5,0,0,0,3.32-3.07A6.7,6.7,0,0,0,290.82,139.16Z" style="fill:#FF5EF2"></path><path d="M358,89.13a5.53,5.53,0,0,0-1.41-3,5.31,5.31,0,0,0-2.77-1.73,4.4,4.4,0,0,0-3.38.65A4.29,4.29,0,0,0,349,86.57a4.32,4.32,0,0,0-4.65-2.08,5.35,5.35,0,0,0-2.79,1.7,5.51,5.51,0,0,0-1.44,3,6.72,6.72,0,0,0,.82,4.17,9.49,9.49,0,0,0,3.28,3.11c2.15,1.31,5,3,5,3s2.41-1.78,4.57-3.07a9.75,9.75,0,0,0,3.31-3.07A6.7,6.7,0,0,0,358,89.13Z" style="fill:#FF5EF2"></path><path d="M152.87,154.43a5.56,5.56,0,0,0-1.41-3,5.36,5.36,0,0,0-2.78-1.72,4.32,4.32,0,0,0-4.76,2.19,4.48,4.48,0,0,0-1.27-1.4,4.37,4.37,0,0,0-3.37-.67,5.29,5.29,0,0,0-2.79,1.7,5.56,5.56,0,0,0-1.45,3,6.87,6.87,0,0,0,.82,4.17,9.68,9.68,0,0,0,3.29,3.1c2.14,1.31,5,2.95,5,2.95s2.41-1.78,4.57-3.07a9.5,9.5,0,0,0,3.32-3.07A6.84,6.84,0,0,0,152.87,154.43Z" style="fill:#FF5EF2"></path><path d="M387.3,147.84a3.27,3.27,0,0,0-.84-1.8,3.15,3.15,0,0,0-1.65-1,2.58,2.58,0,0,0-2,.38,2.53,2.53,0,0,0-.83.92,2.48,2.48,0,0,0-.75-.83,2.59,2.59,0,0,0-2-.4,3.1,3.1,0,0,0-1.66,1,3.31,3.31,0,0,0-.86,1.79,4,4,0,0,0,.49,2.47,5.58,5.58,0,0,0,1.95,1.85c1.27.78,3,1.75,3,1.75s1.43-1.06,2.72-1.82a5.76,5.76,0,0,0,2-1.83A4,4,0,0,0,387.3,147.84Z" style="fill:#FF5EF2"></path><path d="M117.64,235.75a3.46,3.46,0,0,0-2.49-2.83,2.58,2.58,0,0,0-2,.39,2.53,2.53,0,0,0-.83.92,2.49,2.49,0,0,0-.75-.83,2.59,2.59,0,0,0-2-.4,3.1,3.1,0,0,0-1.66,1,3.21,3.21,0,0,0-.86,1.79,4,4,0,0,0,.49,2.47,5.58,5.58,0,0,0,1.95,1.85c1.27.78,3,1.75,3,1.75s1.43-1.06,2.72-1.82a5.76,5.76,0,0,0,2-1.83A4.07,4.07,0,0,0,117.64,235.75Z" style="fill:#FF5EF2"></path><path d="M207.06,227.8a3.38,3.38,0,0,0-.84-1.8,3.14,3.14,0,0,0-1.65-1,2.64,2.64,0,0,0-2,.38,2.78,2.78,0,0,0-.82.92,2.73,2.73,0,0,0-.76-.83,2.61,2.61,0,0,0-2-.4,3.2,3.2,0,0,0-1.66,1,3.29,3.29,0,0,0-.85,1.79,4,4,0,0,0,.48,2.48,5.73,5.73,0,0,0,2,1.84c1.28.78,3,1.76,3,1.76s1.43-1.06,2.72-1.83a5.61,5.61,0,0,0,2-1.82A4,4,0,0,0,207.06,227.8Z" style="fill:#FF5EF2"></path></g><g id="freepik--character-2--inject-118"><path d="M340,441.84l1.21,20s-21.12,8.38-21.27,12.32l41.18-.94-.14-7.94-.36-24Z" style="fill:#455a64"></path><path d="M354,459.76a1.68,1.68,0,0,1,1.2,1.9,1.6,1.6,0,0,1-1.86,1.21,1.77,1.77,0,0,1-1.27-2,1.68,1.68,0,0,1,2.08-1.05" style="fill:#e0e0e0"></path><path d="M361.21,474.09l-.06-3.21L321.56,472s-1.82.84-1.58,2.13Z" style="fill:#e0e0e0"></path><path d="M340.58,461.64c0,.2,1,.27,2,.9s1.55,1.45,1.73,1.37-.14-1.24-1.37-2S340.53,461.46,340.58,461.64Z" style="fill:#263238"></path><path d="M336.3,463.53c0,.19.84.52,1.54,1.35s.92,1.73,1.12,1.72.31-1.16-.59-2.18S336.3,463.34,336.3,463.53Z" style="fill:#263238"></path><path d="M334,468.75c.18,0,.44-1-.1-2.06s-1.49-1.51-1.57-1.34.51.75.94,1.65S333.77,468.74,334,468.75Z" style="fill:#263238"></path><path d="M340.84,456.78c.08.18,1-.11,2.14-.06s2,.39,2.13.21-.77-.87-2.11-.91S340.73,456.63,340.84,456.78Z" style="fill:#263238"></path><path d="M361,146.11c-1.91-7.32-3.83-14.69-6.85-21.63S347.82,110.86,342,106l-42,11.71c-.18,6.92-.34,14,1.83,20.56,2.11,6.37,6.35,12,7.35,18.67.7,4.69-.3,9.45-.76,14.16s-.3,9.81,2.37,13.74a5.9,5.9,0,0,0,2.65,2.32,7.7,7.7,0,0,0,4.33-.11q25.49-5.62,50.68-12.48Q364.74,160.36,361,146.11Z" style="fill:#263238"></path><path d="M349.26,123.68a33.08,33.08,0,0,1-4.89,26.67q-3.8-6.15-7.57-12.32" style="fill:#263238"></path><path d="M308.63,104.85a20.09,20.09,0,0,1,12.8-4.51A42.64,42.64,0,0,1,335,102.72a20.76,20.76,0,0,1,7,3.32c3.68,3,7.83,8.28,9.13,12.82,1.06,3.68,1.7,13.32.88,17-.76,3.43-7,7.29-10.16,8.8L303.3,115.9A15.88,15.88,0,0,1,308.63,104.85Z" style="fill:#263238"></path><path d="M304.42,110.83l7.05-2.94c-1.89,10.44,1.88,32.54,1.83,43.16-3.58-3.33-12.52-13.89-13.24-18.72S295.52,112,304.42,110.83Z" style="fill:#263238"></path><path d="M303.69,127.34c-1.15-7.44,1.73-17.51,9.21-18.34l17.86.55a12.86,12.86,0,0,1,12,9.46c.08.27,0-.08.08.13l6,44.62-7.1,28h0l-17.07-23.92c-.79-3.57-1.43-6.41-1.42-6.39s-9.72.5-14.35-11.3C306.55,144.28,305,135.61,303.69,127.34Z" style="fill:#ffbe9d"></path><path d="M308.81,137.28a1.62,1.62,0,0,0,1.86,1.25,1.54,1.54,0,0,0,1.31-1.77,1.6,1.6,0,0,0-1.86-1.25A1.54,1.54,0,0,0,308.81,137.28Z" style="fill:#263238"></path><path d="M306.59,131.72c.23.17,1.23-1,2.92-1.34s3.11.2,3.25,0-.21-.44-.84-.71a4.3,4.3,0,0,0-2.65-.22,4.17,4.17,0,0,0-2.27,1.32C306.56,131.24,306.47,131.65,306.59,131.72Z" style="fill:#263238"></path><path d="M323.63,134a1.59,1.59,0,0,0,1.86,1.25,1.54,1.54,0,0,0,1.31-1.77,1.62,1.62,0,0,0-1.86-1.25A1.54,1.54,0,0,0,323.63,134Z" style="fill:#263238"></path><path d="M322.61,128.16c.24.17,1.23-1,2.92-1.34s3.11.2,3.25,0-.21-.44-.83-.71a4.34,4.34,0,0,0-2.66-.22,4.17,4.17,0,0,0-2.27,1.32C322.59,127.68,322.49,128.09,322.61,128.16Z" style="fill:#263238"></path><path d="M320.28,142.59a11.4,11.4,0,0,0-2.85.1c-.44.05-.87.06-1-.22a2.24,2.24,0,0,1,0-1.34c.17-1.13.36-2.32.55-3.56.74-5.06,1.18-9.19,1-9.22s-1,4.06-1.72,9.12c-.17,1.24-.34,2.43-.49,3.57a2.49,2.49,0,0,0,.15,1.74,1.09,1.09,0,0,0,.84.47,2.55,2.55,0,0,0,.76-.06A11.78,11.78,0,0,0,320.28,142.59Z" style="fill:#263238"></path><path d="M338.44,153.49s-2.11,9.28-14.6,10.83l-.64-2.87A31.49,31.49,0,0,0,338.44,153.49Z" style="fill:#eb996e"></path><path d="M321.78,122c.27.42,1.91-.17,3.94-.36s3.75,0,3.93-.48c.07-.22-.3-.59-1-.9a6.88,6.88,0,0,0-6,.64C322,121.31,321.66,121.75,321.78,122Z" style="fill:#263238"></path><path d="M306,126.44c.38.32,1.46-.33,2.85-.66s2.64-.31,2.82-.77c.08-.22-.19-.57-.79-.82a4.13,4.13,0,0,0-2.46-.11,4,4,0,0,0-2.11,1.27C305.89,125.85,305.82,126.28,306,126.44Z" style="fill:#263238"></path><path d="M343.05,128.23c.05-.37,5.92-4.09,7.51,2.67,1.54,6.56-5.39,6.74-5.44,6.56S343.05,128.23,343.05,128.23Z" style="fill:#ffbe9d"></path><path d="M346.57,134.5s.13.05.34.09a1.13,1.13,0,0,0,.86-.18,2.89,2.89,0,0,0,.73-2.84,4,4,0,0,0-.71-1.57,1.35,1.35,0,0,0-1.06-.67.58.58,0,0,0-.6.47c-.05.2,0,.32,0,.34s-.17-.08-.18-.36a.74.74,0,0,1,.17-.47.87.87,0,0,1,.59-.32,1.64,1.64,0,0,1,1.43.75,3.88,3.88,0,0,1,.83,1.73c.26,1.34-.13,2.74-1,3.23a1.23,1.23,0,0,1-1.08.07C346.62,134.65,346.55,134.51,346.57,134.5Z" style="fill:#eb996e"></path><path d="M346.08,122.4c-.86-.94-2.15-1.52-2.72-2.66s-.33-2.21-.61-3.3a7.35,7.35,0,0,0-1.82-2.87,32.6,32.6,0,0,0-14.41-9.7,21.35,21.35,0,0,0-11.35-.39,16.22,16.22,0,0,0-9.31,6.32c-1.27,1.86-2.62,3.79-1.33,5.64a5.5,5.5,0,0,1,4.07-4.1,10.7,10.7,0,0,1,6,.39c7.69,2.42,13.44,10.75,20.83,14.07.63,1.85,1.27,3.7,2,5.53.54,1.4,1.28,2.95,2.72,3.4,1.76.54,3.61-1,4.09-2.79a8.25,8.25,0,0,0-.19-4.15c.52-.62,1.16-1.09,2.12-2.09C347.3,124.48,347.21,123.64,346.08,122.4Z" style="fill:#263238"></path><path d="M325.13,144.87a3.34,3.34,0,0,1-.49,5.46,2,2,0,0,1-1.23.29,2.83,2.83,0,0,1-1.68-1.41l-1.06-1.55a.83.83,0,0,1-.2-.59c.06-.22.28-.34.49-.44l4-2" style="fill:#eb996e"></path><path d="M323.46,150.39a3.93,3.93,0,0,0,1.87-.67,3.12,3.12,0,0,0,1.38-1.74,2.26,2.26,0,0,0,0-1.36,3.92,3.92,0,0,0-.63-1.28,3.63,3.63,0,0,0-1-.92l-.13-.08-.13.08c-2.58,1.61-4.66,2.59-4.61,2.71a17.73,17.73,0,0,0,4.87-2.28h-.26a3.15,3.15,0,0,1,.88.79,2.77,2.77,0,0,1,.62,2.21,2.84,2.84,0,0,1-1.12,1.56C324.17,150.08,323.42,150.3,323.46,150.39Z" style="fill:#263238"></path><path d="M363.76,152.92c-3.78-6.25-4.32-17.93-8.49-25.83L354.75,139,351,141.73l-5.47-2.27a63.76,63.76,0,0,0,14,42.41c3.43-.59,5.06-2.28,6.33-5.53a10.36,10.36,0,0,0-1.4-9.89q2.65,3.53,5.29,7.07C370.86,166.3,367.54,159.17,363.76,152.92Z" style="fill:#263238"></path><path d="M322.89,270.77l2.95,28s4.17,70.8,6.23,80.55,8.36,76.91,8.36,76.91h21.41s3.2-25.27,4.49-51.06c1-19.46-2.13-31.11-2.13-38.91s9.05-57.58,9.05-57.58,5.52-18,5.81-29.52-11-21.55-11-21.55l-37,2.77Z" style="fill:#263238"></path><path d="M346.62,155.34s15.11-.41,22.06,12.57c3.88,7.25,4.5,28.58,3.76,33.9s-4.53,29.87-4.53,29.87l-.43,12.59L379.07,269a157.1,157.1,0,0,1-21.51,2.62c-12.63.71-36.61,8-36.61,8s-2.77-20.48-2.81-28.74,1.28-32.58,1.61-33.13,7.78-47.12,7.78-47.12Z" style="fill:#FF5EF2"></path><polyline points="314.32 188.22 316.07 176.43 309.09 160.75 315.66 154.34 327.83 169.53 325.7 186.03 314.88 188.22" style="fill:#ffbe9d"></polyline><polygon points="314.89 188.24 314.88 188.19 325.68 186.01 327.8 169.54 315.66 154.37 309.12 160.76 316.09 176.42 316.09 176.43 314.34 188.22 314.3 188.21 316.04 176.43 309.06 160.75 309.07 160.74 315.67 154.3 315.68 154.32 327.86 169.52 327.85 169.53 325.73 186.05 325.71 186.05 314.89 188.24" style="fill:#eb996e"></polygon><path d="M319.86,183.32l-6.56-.66s-2.45,23.26-3.51,28.14-2,12.67,0,18.31,5.4,11.73,9.79,11.58,7.59-18.59,7.59-18.59l-5.8-37.49Z" style="fill:#FF5EF2"></path><path d="M320,228.22a5.47,5.47,0,0,1-.1,1.27c-.11.91-.25,2.06-.42,3.43-.36,2.89-.82,6.89-1,11.33a98.48,98.48,0,0,0,.17,11.36c.12,1.45.22,2.63.31,3.44a6.28,6.28,0,0,1,.07,1.26,5.37,5.37,0,0,1-.27-1.24c-.15-.8-.31-2-.47-3.43a76.29,76.29,0,0,1-.33-11.42,102.49,102.49,0,0,1,1.16-11.35c.23-1.45.43-2.61.59-3.41A6.82,6.82,0,0,1,320,228.22Z" style="fill:#263238"></path><path d="M308.18,155a1,1,0,0,0-1.79.77,3.32,3.32,0,0,0,.26,1.18c.48,1.19,7.24,9.65,7.72,10.9a87.27,87.27,0,0,0,6.06,8.75l-1.13,7.79,13.76-1.71s.68-20.07-.08-22.21-2.07-8.07-2.07-8.07L329,148.2a3.54,3.54,0,0,0-2,3.79c.42,2.76.49,8.55.49,8.55l-9.36-10.92s-4-6.81-6.58-4.67h0s-2.84-1.88-3.28.52c0,0-2.05-.13-1.09,3.32a32.5,32.5,0,0,0,2.73,6.51l2.62,4.27Z" style="fill:#ffbe9d"></path><path d="M308.18,155a2.09,2.09,0,0,1,.31.28l.85.86,3.24,3.36-.16.13-1.69-2.71c-.31-.49-.63-1-1-1.55s-.61-1.13-.91-1.75a30.89,30.89,0,0,1-1.63-4,8.83,8.83,0,0,1-.5-2.36,2.31,2.31,0,0,1,.31-1.28,1.42,1.42,0,0,1,1.23-.65l-.2.15a1.92,1.92,0,0,1,.45-1,1.48,1.48,0,0,1,1.05-.41,4.29,4.29,0,0,1,2.07.72l-.24,0a2.11,2.11,0,0,1,2.2-.26,6.57,6.57,0,0,1,1.86,1.28,19.48,19.48,0,0,1,2.85,3.69l0,0,9.37,10.91-.43.16c0-2.1-.11-4.26-.27-6.44,0-.55-.09-1.09-.16-1.64a5.24,5.24,0,0,1-.05-1.73,3.8,3.8,0,0,1,2.14-2.77l.23-.11.11.24c.61,1.33,1.26,2.76,1.93,4.2v.06c.43,1.92.91,4,1.46,6,.14.52.28,1,.44,1.53a6,6,0,0,1,.34,1.6c.11,1.07.13,2.12.16,3.17,0,2.09,0,4.16,0,6.2-.05,4.07-.15,8-.28,11.81v.21l-.21,0-13.76,1.69-.29,0,0-.29c.41-2.75.79-5.34,1.15-7.79l.08.19c-1.41-1.73-2.5-3.36-3.63-4.95a43.09,43.09,0,0,1-2.88-4.62c-1.9-2.8-3.72-5.12-5.13-7.08-.7-1-1.33-1.84-1.83-2.64a3,3,0,0,1-.47-1.22,1.57,1.57,0,0,1,.1-1.08,1.08,1.08,0,0,1,1.31-.47.87.87,0,0,1,.4.3,1.52,1.52,0,0,0-.42-.24,1,1,0,0,0-1.19.47,1.45,1.45,0,0,0-.06,1,3,3,0,0,0,.48,1.15c.5.77,1.15,1.63,1.87,2.59,1.43,1.94,3.27,4.23,5.21,7A41.9,41.9,0,0,0,317,171.6c1.08,1.57,2.35,3.21,3.53,4.9l.13.13c-.35,2.45-.72,5-1.12,7.79l-.25-.25L333,182.43l-.22.24q.18-5.7.26-11.81c0-2,0-4.1,0-6.18,0-1-.05-2.09-.16-3.13a5.31,5.31,0,0,0-.32-1.49c-.16-.52-.31-1-.45-1.55-.55-2.06-1-4.12-1.46-6l0,0c-.67-1.44-1.32-2.88-1.93-4.2l.33.12a3.32,3.32,0,0,0-1.84,2.38,5,5,0,0,0,.05,1.59c.07.56.12,1.11.16,1.66.17,2.2.23,4.36.26,6.47v.69l-.44-.52L318,149.76h0v0a18.46,18.46,0,0,0-2.76-3.6,5.85,5.85,0,0,0-1.72-1.21,1.72,1.72,0,0,0-1.79.18l-.11.09-.12-.07a3.83,3.83,0,0,0-1.85-.67,1.11,1.11,0,0,0-1.13,1.06l0,.15h-.17a1.06,1.06,0,0,0-.9.48,2.18,2.18,0,0,0-.26,1.08,8.27,8.27,0,0,0,.47,2.26,31.77,31.77,0,0,0,1.58,4c.28.6.58,1.19.88,1.73l.94,1.56,1.65,2.73.53.88-.7-.76-3.17-3.43-.81-.89Z" style="fill:#eb996e"></path><path d="M316.25,161.09a10.88,10.88,0,0,1-1.64-2,41.23,41.23,0,0,1-3.23-5.36A48.93,48.93,0,0,1,309,148a12.16,12.16,0,0,1-.72-2.49c.18-.06,1.44,3.69,3.6,8a61.31,61.31,0,0,0,3.07,5.38A14.83,14.83,0,0,1,316.25,161.09Z" style="fill:#eb996e"></path><path d="M320.28,159.08a7.79,7.79,0,0,1-1.74-1.74,33.1,33.1,0,0,1-3.3-4.91c-1.13-2-2-3.9-2.71-5.25a12.13,12.13,0,0,1-1-2.23,10.8,10.8,0,0,1,1.33,2.06c.75,1.31,1.72,3.16,2.83,5.16a49.56,49.56,0,0,0,3.14,5A19.64,19.64,0,0,1,320.28,159.08Z" style="fill:#eb996e"></path><g style="opacity:0.30000000000000004"><path d="M346,228.31c-1.67,2.84-3.67,5.74-6.7,7.06a14.17,14.17,0,0,1-7.43.63c-3.79-.5-7.84-1.81-9.9-5l-2.15-2.28a38.86,38.86,0,0,0,5.86,9.06c2.49,2.61,5.91,4.56,9.52,4.46a15.53,15.53,0,0,0,9-2.86c5.78-4.56,6.94-9.91,9.19-16.91s5.11-16.41,5.95-23.72C355.14,208.7,351.49,219,346,228.31Z"></path></g><path d="M357.73,157.8a14,14,0,0,0-16.71,7c-.74,1.63-6.72,22-6.72,22l-.25-5.45-18,2.08s.31,35.39,2.07,40.55,5.7,11.53,12.2,13.79c4,1.38,12.28-.56,15.1-4.77,6.32-9.43,12-26.78,14.05-33.45,4.15-13.67,5.13-18.49,5.13-18.49" style="fill:#FF5EF2"></path><path d="M364.62,181.06s0,.17-.09.51-.18.84-.32,1.46c-.3,1.29-.78,3.18-1.43,5.6s-1.49,5.38-2.5,8.79-2.21,7.3-3.69,11.54-3.21,8.84-5.36,13.66c-1.08,2.41-2.28,4.87-3.66,7.33a35.53,35.53,0,0,1-2.29,3.64,10.88,10.88,0,0,1-3.5,2.77,18.76,18.76,0,0,1-8.89,2.09,9.21,9.21,0,0,1-2.37-.37,13.85,13.85,0,0,1-2.22-.92,17.73,17.73,0,0,1-4-2.79,24.72,24.72,0,0,1-5.6-8.13,21.8,21.8,0,0,1-.9-2.37c-.09-.42-.21-.84-.29-1.26l-.18-1.27c-.23-1.68-.37-3.38-.5-5.09-.76-11.5-.91-22.56-1.05-32.82v-.22l.22,0,18-2.05.24,0v.24c.08,1.87.16,3.68.24,5.45l-.42,0c1.83-6.2,3.52-11.85,5.07-16.84.39-1.24.77-2.45,1.14-3.61.2-.57.37-1.15.62-1.7a12.35,12.35,0,0,1,.89-1.5,14.6,14.6,0,0,1,4.57-4.17,13.12,13.12,0,0,1,4.7-1.66,14.82,14.82,0,0,1,2-.18c.61,0,1.17,0,1.67.09l1.3.18.93.24c.49.12.74.21.74.21s-.26,0-.76-.15l-.93-.2-1.3-.15c-.49-.07-1,0-1.65-.06a16.44,16.44,0,0,0-2,.2,13.11,13.11,0,0,0-4.6,1.69,14.39,14.39,0,0,0-4.46,4.13,11.74,11.74,0,0,0-.85,1.47c-.23.51-.4,1.09-.59,1.66-.36,1.16-.74,2.37-1.12,3.61-1.52,5-3.18,10.66-5,16.86l-.36,1.23-.06-1.28c-.09-1.77-.17-3.58-.26-5.45l.25.21-18,2.1.21-.24c.16,10.25.33,21.31,1.08,32.79.13,1.7.27,3.39.49,5.05l.18,1.24c.08.41.19.8.28,1.2a21.6,21.6,0,0,0,.87,2.32,24.08,24.08,0,0,0,5.48,8,16.44,16.44,0,0,0,3.84,2.72,14.72,14.72,0,0,0,2.14.9,9.26,9.26,0,0,0,2.24.34,18.19,18.19,0,0,0,8.65-2,10.23,10.23,0,0,0,3.35-2.63,35.27,35.27,0,0,0,2.26-3.58c1.38-2.43,2.58-4.88,3.67-7.27,2.15-4.81,3.91-9.39,5.41-13.61s2.73-8.09,3.75-11.5,1.9-6.35,2.58-8.76,1.2-4.29,1.53-5.57c.16-.62.28-1.11.37-1.46S364.62,181.06,364.62,181.06Z" style="fill:#263238"></path><path d="M322.38,223.44c-.74-15.1,8.38-23.9,11.92-36.64" style="fill:#FF5EF2"></path><path d="M334.3,186.8a7.8,7.8,0,0,1-.35,1.49c-.13.48-.3,1.06-.54,1.72s-.47,1.43-.82,2.24c-.63,1.65-1.51,3.56-2.51,5.67s-2.16,4.38-3.28,6.82a45,45,0,0,0-4,13,38.81,38.81,0,0,0-.3,4.14,10,10,0,0,1-.08,1.53,7.93,7.93,0,0,1-.12-1.53,29.66,29.66,0,0,1,.14-4.19,42,42,0,0,1,3.92-13.2c1.13-2.45,2.29-4.73,3.33-6.81s1.93-4,2.6-5.6c.37-.8.63-1.55.89-2.2s.46-1.21.61-1.68A9,9,0,0,1,334.3,186.8Z" style="fill:#263238"></path><path d="M345.5,138.4c.71,5.08-1.19,10.14-3.34,14.8s-4.62,9.32-5.18,14.42c-.1.84-.06,1.86.66,2.32s1.38.49,1.84-.28a19.81,19.81,0,0,0,1.11-3.14c1.54-4.53,6.44-9,11.14-9.12a21.21,21.21,0,0,1,6,.4Z" style="fill:#263238"></path></g><g id="freepik--character-1--inject-118"><path d="M92.18,457.34l-21.06-5.88s-8.44,22.84-12.66,23.1l-.05-44.13,8.52-.06,26.95,4.9Z" style="fill:#455a64"></path><path d="M73,437.81A1.79,1.79,0,0,0,71,436.56a1.73,1.73,0,0,0-1.25,2,1.9,1.9,0,0,0,2.18,1.31A1.8,1.8,0,0,0,73,437.64" style="fill:#e0e0e0"></path><path d="M57.49,430.4l3.43,0-.22,42.44s-.85,2-2.24,1.75Z" style="fill:#e0e0e0"></path><path d="M71.34,452.17c-.21,0-.31-1.08-1-2.14s-1.6-1.63-1.51-1.83,1.33.13,2.15,1.42S71.54,452.22,71.34,452.17Z" style="fill:#263238"></path><path d="M69.43,456.8c-.21.05-.57-.88-1.49-1.61s-1.87-.94-1.86-1.16,1.22-.35,2.34.58S69.64,456.8,69.43,456.8Z" style="fill:#263238"></path><path d="M63.89,459.44c0-.2,1-.5,2.22.05s1.65,1.56,1.47,1.65-.81-.53-1.79-1S63.92,459.65,63.89,459.44Z" style="fill:#263238"></path><path d="M76.54,451.78c-.19-.09.1-1.08,0-2.3s-.47-2.17-.29-2.28,1,.8,1,2.24S76.71,451.88,76.54,451.78Z" style="fill:#263238"></path><path d="M125.43,369s.21,19.71,7.91,27.74c1.83,1.91,5.08,41.51,5.08,41.51l-63.09-8.29-1,26.87c20.58,4.28,64.49,17.16,71.8,17.56,10.1.56,25.29-.75,27.86-19.18,1.63-11.74,9.17-82.73,9.17-82.73Z" style="fill:#263238"></path><path d="M183.73,368.08c.15,0-1.08,11.08-2.73,24.69s-3.1,24.65-3.24,24.63,1.08-11.07,2.73-24.69S183.59,368.07,183.73,368.08Z" style="fill:#455a64"></path><path d="M147,450.63a55.1,55.1,0,0,1-4.5-6.06,56.17,56.17,0,0,1-4.07-6.35,53.64,53.64,0,0,1,4.5,6.06A53.56,53.56,0,0,1,147,450.63Z" style="fill:#455a64"></path><path d="M225,438.87l-6.68,21.85s23.65,9.39,23.81,13.8L196,473.45l.16-8.9,5.8-28Z" style="fill:#455a64"></path><path d="M204.12,458.39a1.87,1.87,0,0,0-1.35,2.12,1.8,1.8,0,0,0,2.08,1.35,2,2,0,0,0,1.42-2.25,1.87,1.87,0,0,0-2.32-1.17" style="fill:#e0e0e0"></path><path d="M196,474.42l.06-3.59,44.33,1.31s2,.94,1.76,2.38Z" style="fill:#e0e0e0"></path><path d="M219.08,460.5c0,.22-1.14.3-2.27,1s-1.73,1.63-1.94,1.53.16-1.38,1.54-2.2S219.13,460.29,219.08,460.5Z" style="fill:#263238"></path><path d="M223.87,462.61c0,.22-.94.58-1.73,1.51s-1,1.94-1.25,1.93-.34-1.3.66-2.44S223.87,462.4,223.87,462.61Z" style="fill:#263238"></path><path d="M226.48,468.46c-.21,0-.5-1.09.11-2.31s1.67-1.68,1.76-1.49-.57.83-1.06,1.84S226.7,468.44,226.48,468.46Z" style="fill:#263238"></path><path d="M218.8,455.06c-.1.2-1.13-.14-2.4-.08s-2.28.44-2.39.24.86-1,2.36-1S218.91,454.88,218.8,455.06Z" style="fill:#263238"></path><path d="M180.72,348.16s25-1.87,46.22,1c5.85.81,13.16,1.41,16.69,3,7.72,3.53,8.65,11.34,8.35,15.71-.42,6-25.82,87.86-25.82,87.86l-28.78-2.29,11.87-50.8c2.08-8.95,5.8-19.54,5.8-19.54l-43.86,2.57s-8-23.84-6.08-30.71S180.72,348.16,180.72,348.16Z" style="fill:#263238"></path><path d="M229.46,369.8a29.74,29.74,0,0,1-2.52,1.75,47.38,47.38,0,0,0-10.65,10.06A30,30,0,0,1,214.4,384a2.58,2.58,0,0,1,.37-.75c.26-.46.68-1.11,1.22-1.89a37.93,37.93,0,0,1,4.88-5.6,37.22,37.22,0,0,1,5.87-4.55c.81-.5,1.48-.88,2-1.12A2.39,2.39,0,0,1,229.46,369.8Z" style="fill:#455a64"></path><rect x="260.94" y="226.08" width="1.3" height="4.95" transform="translate(-62.71 104.08) rotate(-20.15)" style="fill:#455a64"></rect><polygon points="260.48 227.4 258.28 226.08 258.93 224.37 260.73 223.66 262.38 224.61 261.68 226.99 260.48 227.4" style="fill:#f5f5f5"></polygon><path d="M260.48,227.4a5.2,5.2,0,0,1,1.15-.56l-.1.1c.14-.61.36-1.44.62-2.4l.11.28-1.66-.93h.23l-.32.13-1.49.58.14-.15c-.24.59-.46,1.15-.68,1.7l-.09-.26a13.42,13.42,0,0,1,2.09,1.5,10.51,10.51,0,0,1-2.31-1.13l-.16-.09.07-.17c.19-.56.4-1.13.61-1.73l0-.1.1,0,1.49-.59.32-.13.12,0,.1.07,1.64,1,.17.1-.06.18c-.29.94-.56,1.76-.78,2.35l0,.09-.07,0C260.92,227.37,260.47,227.46,260.48,227.4Z" style="fill:#e0e0e0"></path><path d="M239,232.14c.06-.3,3.89-8.67,4.77-9.2s12.68,0,12.68,0-.17,2.59-1.41,3.18-4.4,2.18-4.4,2.18a42.67,42.67,0,0,1-3.21,3.48l.59,5.13-5.48,2.18Z" style="fill:#a86b62"></path><path d="M255.14,222.46s-5.44,1.5-4.38,6.95,2.27,6.51,3.57,6.51,12.9-4.46,12.9-4.46l-1-2.92-8.37,3.16Z" style="fill:#FF5EF2"></path><path d="M253.31,221.23s-8,3.42-9.61,4.77-8.38,6.84-8.44,7.49.83,13.62.83,13.62l-2.65,3.6,3.83,5.31,14.09-17.4,5.07-4.48s-.12-1.59-1.41-1.89-5.84.71-6.55,1.65a23,23,0,0,1-2.71,2.6l-2.12-.89-.18-3.36s4.3-4.31,5-4.93,5.51-3.48,6.06-4.64S253.31,221.23,253.31,221.23Z" style="fill:#e49384"></path><path d="M239.3,250.4s2.35-6.54,4.78-9a22.9,22.9,0,0,1,6.68-4.08s5.79-5,6.68-6a3.62,3.62,0,0,1,4.3-.66c1.44.88-1.54,5.63-2.65,7s-3.75,4.3-3.75,4.3l4.08-2.1,3.32-3.75v-5.91s1.32-1.82,2.32,0,1.21,8.6,1.1,9.68-3.75,5.51-4.2,6.5-.88,3.31-1.21,3.53-13.58,6.41-13.58,6.41Z" style="fill:#e49384"></path><path d="M239.3,250.4a3.62,3.62,0,0,1,.56.38l1.57,1.13,5.83,4.31-.15,0,6.77-3.24,4-1.9,2.13-1,.55-.26c.05,0,.09,0,.08,0s0-.06.05-.08a1.56,1.56,0,0,0,.11-.26c.14-.37.24-.77.36-1.17a8.82,8.82,0,0,1,.9-2.44c.48-.74,1-1.44,1.53-2.16s1.05-1.46,1.54-2.22a8.58,8.58,0,0,0,.67-1.17,2.86,2.86,0,0,0,.15-1.28,47.07,47.07,0,0,0-.4-5.73,10.89,10.89,0,0,0-.67-2.81c-.2-.41-.52-.77-.88-.74a1.65,1.65,0,0,0-1,.69l.05-.15v6l-.07.07-3.31,3.76,0,0,0,0-4.08,2.09-1.19.61.88-1,2.53-2.9,1.24-1.42a19.17,19.17,0,0,0,2.7-4.66,3,3,0,0,0,.22-1.58c-.09-.39-.72-.6-1.22-.69a3.53,3.53,0,0,0-2.91.86c-.76.8-1.58,1.5-2.35,2.2q-2.36,2.07-4.48,3.87l0,0h0a22.16,22.16,0,0,0-6.4,3.79,11.33,11.33,0,0,0-1.88,2.39c-.49.81-.9,1.58-1.25,2.27-.7,1.4-1.17,2.52-1.5,3.27-.15.36-.27.64-.36.87a1.82,1.82,0,0,1-.14.29,1.13,1.13,0,0,1,.09-.31l.31-.89c.29-.77.74-1.9,1.41-3.32a25.2,25.2,0,0,1,1.22-2.31,10.82,10.82,0,0,1,1.89-2.48,21.76,21.76,0,0,1,6.47-3.92l-.06,0,4.44-3.9c.77-.71,1.58-1.4,2.33-2.2a4,4,0,0,1,3.3-1,3.47,3.47,0,0,1,.88.28,1.23,1.23,0,0,1,.72.74,3.25,3.25,0,0,1-.23,1.87,16.61,16.61,0,0,1-1.67,3.28c-.34.53-.69,1-1.09,1.55l-1.24,1.43-2.54,2.91-.31-.4,4.09-2.1-.08.06,3.31-3.75-.06.17v-6l0-.06a2.09,2.09,0,0,1,1.44-.91,1.2,1.2,0,0,1,.87.35,2.35,2.35,0,0,1,.48.68,10.9,10.9,0,0,1,.72,3,46.19,46.19,0,0,1,.39,5.8v.72a1.84,1.84,0,0,1-.18.76,10.41,10.41,0,0,1-.71,1.23c-.51.78-1,1.51-1.57,2.23s-1,1.43-1.52,2.14a8.1,8.1,0,0,0-.86,2.31c-.12.41-.23.8-.38,1.21a1.94,1.94,0,0,1-.13.3.8.8,0,0,1-.12.18.37.37,0,0,1-.16.11l-.55.26-2.15,1-4,1.87-6.83,3.18-.08,0-.07-.05L241.29,252l-1.5-1.17A5.68,5.68,0,0,1,239.3,250.4Z" style="fill:#a86b62"></path><path d="M262.23,224.55c0,.13-.8.58-1.91,1a4.7,4.7,0,0,1-2.09.52c-.05-.14.8-.59,1.91-1S262.18,224.41,262.23,224.55Z" style="fill:#e0e0e0"></path><path d="M260.48,225.16c-.06.13-.45.07-.86-.14s-.69-.48-.62-.61.45-.06.86.14S260.54,225,260.48,225.16Z" style="fill:#e0e0e0"></path><path d="M260.48,225.16c-.14,0-.21-.37-.15-.78s.22-.73.37-.7.2.36.15.77S260.62,225.18,260.48,225.16Z" style="fill:#e0e0e0"></path><path d="M259.86,222.84c-.1.1-.77-.45-1.48-1.22s-1.21-1.48-1.1-1.57.77.45,1.48,1.22S260,222.73,259.86,222.84Z" style="fill:#263238"></path><path d="M261.34,222.77a7.88,7.88,0,0,1-.29-3.08,8.15,8.15,0,0,1,.38-3.08,10.81,10.81,0,0,1,.14,3.08A11.26,11.26,0,0,1,261.34,222.77Z" style="fill:#263238"></path><path d="M264.92,221.49c.08.12-.41.59-1.09,1s-1.3.74-1.38.62.41-.59,1.09-1S264.84,221.37,264.92,221.49Z" style="fill:#263238"></path><path d="M193.09,196.05c-1.79-2.1-4-4.11-4.52-6.82-.5-2.49.5-5.28-.71-7.51-1.48-2.75-5.48-3.15-7.29-5.7-.89-1.23-1.14-2.82-2-4.06-1.48-2.11-4.39-2.7-7-2.46s-5,1.14-7.62,1.28c-3.53.21-7.16-1-10.56,0-3.76,1.08-6.08,4.36-8.55,7.53L141.65,182a13.83,13.83,0,0,1-2.14,1.69,26.5,26.5,0,0,0-4,2.51,6.26,6.26,0,0,0,.3,9,6.68,6.68,0,0,0-4.58,6.49,19.14,19.14,0,0,0,1.16,4.55,6.71,6.71,0,0,1,.07,4.61c-.65,1.43-2.5,2.39-3.86,1.61a7,7,0,0,0,3.78,4.73,4.28,4.28,0,0,1-2.84,1.22c2.78,6.75,10.53,10.38,17.83,10.5s14.33-2.57,21.14-5.22l19.73-4.9c1.74-.37,2.48-2.47,2.47-4.24s-.43-3.62.22-5.27c.89-2.26,3.55-3.43,4.48-5.68C196.43,201,194.89,198.15,193.09,196.05Z" style="fill:#263238"></path><path d="M146.35,213.48A80.91,80.91,0,0,1,143,199.89a28.22,28.22,0,0,1,1.32-13.8c.25-.66,2.42-5.07,3.12-5,.51.05-.85,4.19-.6,4.63a24,24,0,0,1,2.49,14,63.39,63.39,0,0,1-3,13.71" style="fill:#263238"></path><path d="M146.16,195.66c-.2-11.7,6.44-21.58,18.15-21.46l1.08.07a20.94,20.94,0,0,1,19.5,20.63c.12,10.15.12,21.37-.32,26.78-.91,11.2-12.24,12.17-12.24,12.17s.13,18.44.13,18.44l-27.25-17.45Z" style="fill:#e49384"></path><path d="M172.33,233.85a27.14,27.14,0,0,1-14.3-5.32,14.5,14.5,0,0,0,14.32,9.61Z" style="fill:#a86b62"></path><path d="M181.2,204a1.6,1.6,0,0,1-1.66,1.51,1.54,1.54,0,0,1-1.55-1.55,1.6,1.6,0,0,1,1.66-1.51A1.53,1.53,0,0,1,181.2,204Z" style="fill:#263238"></path><path d="M182.24,199.13c-.2.22-1.42-.67-3.15-.64s-3,.91-3.17.7.11-.48.65-.88a4.4,4.4,0,0,1,2.54-.82,4.23,4.23,0,0,1,2.51.77C182.15,198.66,182.34,199,182.24,199.13Z" style="fill:#263238"></path><path d="M165.67,203.74a1.61,1.61,0,0,1-1.65,1.51,1.53,1.53,0,0,1-1.55-1.56,1.61,1.61,0,0,1,1.65-1.51A1.54,1.54,0,0,1,165.67,203.74Z" style="fill:#263238"></path><path d="M165.62,198.73c-.2.21-1.41-.7-3.13-.7s-3,.84-3.19.63.12-.47.67-.87a4.41,4.41,0,0,1,2.55-.76,4.21,4.21,0,0,1,2.5.82C165.54,198.26,165.72,198.64,165.62,198.73Z" style="fill:#263238"></path><path d="M170.52,212.59a11.25,11.25,0,0,1,2.83-.31c.45,0,.87-.08,1-.37a2.21,2.21,0,0,0-.2-1.33c-.34-1.09-.7-2.23-1.07-3.43-1.48-4.9-2.52-8.91-2.32-9s1.56,3.87,3,8.76q.54,1.8,1,3.45a2.56,2.56,0,0,1,.11,1.74,1.12,1.12,0,0,1-.77.6,3.44,3.44,0,0,1-.75.05A11.4,11.4,0,0,1,170.52,212.59Z" style="fill:#263238"></path><path d="M165.37,213.43c.28,0,.16,1.88,1.66,3.31s3.52,1.37,3.51,1.63-.46.34-1.31.3a4.67,4.67,0,0,1-2.93-1.26,4.05,4.05,0,0,1-1.28-2.76C165,213.86,165.24,213.41,165.37,213.43Z" style="fill:#263238"></path><path d="M165.64,191.93c-.21.46-1.91.12-3.95.22s-3.71.55-3.95.11c-.1-.21.21-.63.9-1a6.87,6.87,0,0,1,6-.25C165.38,191.32,165.73,191.72,165.64,191.93Z" style="fill:#263238"></path><path d="M181.85,193.62c-.33.37-1.49-.12-2.91-.24s-2.65.09-2.9-.34c-.11-.21.1-.59.66-.92a4,4,0,0,1,2.41-.48,4,4,0,0,1,2.28,1C181.86,193,182,193.44,181.85,193.62Z" style="fill:#263238"></path><path d="M146.5,204c-.18-.09-7.54-2.8-7.82,4.88s7.48,6.38,7.5,6.16S146.5,204,146.5,204Z" style="fill:#e49384"></path><path d="M144,212.06s-.14.09-.37.18a1.32,1.32,0,0,1-1,0,3.3,3.3,0,0,1-1.42-3,4.29,4.29,0,0,1,.44-1.9,1.57,1.57,0,0,1,1-1,.69.69,0,0,1,.78.4c.1.21,0,.37.08.38s.17-.12.12-.44a.86.86,0,0,0-.28-.49,1,1,0,0,0-.74-.23,1.91,1.91,0,0,0-1.44,1.14,4.57,4.57,0,0,0-.54,2.13c0,1.55.73,3,1.83,3.38a1.42,1.42,0,0,0,1.23-.15C143.93,212.25,144,212.08,144,212.06Z" style="fill:#a86b62"></path><path d="M180.27,182c1.26-.65-2.35-4.78-5.37-6.25-4.56-2.23-11.58-3.71-15.87-2.62-5.16,1.31-9.49,3.74-12.2,8.33A30.28,30.28,0,0,0,143,196.83a9.19,9.19,0,0,0,1,4.73c1,1.73,3.06,2.85,2.9,5.19a3.29,3.29,0,0,0,.73,2.37c1.37,1.53,3.13.18,4-1.21,1.77-3,2.06-6.55,2.3-10a22.17,22.17,0,0,0-.28-7.32c-.34-1.29-.91-2.52-1.18-3.82A4.6,4.6,0,0,1,153,183a5.54,5.54,0,0,1,.64-.62,8,8,0,0,1,8-1.29c4.28,1.65,11.6,4.14,13.57,2.73,2.84-2,3.54-3.39,3.54-3.39Z" style="fill:#263238"></path><path d="M159.46,172.13a16.9,16.9,0,0,1,13,1.08,8.78,8.78,0,0,1,4.49,5.23c.58,2.29-.47,5.06-2.69,5.89l-.15.09c-3.31,1-5.42.52-8.66-.71-2.72-1-5.12-2.79-7.85-3.8a15.64,15.64,0,0,0-9.13-.53A25.54,25.54,0,0,1,159.46,172.13Z" style="fill:#263238"></path><polygon points="194.17 269.24 215.85 266.32 234.67 246.35 245.99 259.07 220.08 285.26 196.9 282.46 194.17 269.24" style="fill:#455a64"></polygon><path d="M144,230.93l-2.06,6.44s-15.66,21.09-14,43.29l7.5,43.91-10.15,35.35-.81,22.51S195,383.67,199.55,381c0,0-4-26-4.87-38.32-.89-12.12-3.25-53.3-3.25-53.3l-15.78-39.54-2.23-6.78Z" style="fill:#455a64"></path><path d="M154.25,241.39s20.44,8.16,22.74,9.15S194.68,270,194.68,270l20.38,5.95c-.38,0,22.35-27.63,22.35-27.63a13.9,13.9,0,0,1,12,7.75c3.94,7.89,2.1,10.38,2.1,10.38L226.64,299a11.23,11.23,0,0,1-11.23,4l-63.84-17.73s-5.21-22.18-3.56-30.4A31.61,31.61,0,0,1,154.25,241.39Z" style="fill:#455a64"></path><path d="M157.76,347.07a6.47,6.47,0,0,1,.69.05l1.88.19,6.91.72c5.86.62,14,1.49,23.14,2.54l-.28.3c-.35-2-.72-4.09-1.09-6.22-.16-.88-.31-1.76-.46-2.61l.22.21L162,338.77l.17-.09-3.2,6.13c-.37.69-.66,1.25-.89,1.67a5.14,5.14,0,0,1-.33.59,5.59,5.59,0,0,1,.25-.55l.79-1.66c.74-1.53,1.78-3.67,3.08-6.33l.05-.11h.12l26.79,3.31.19,0,0,.19c.15.85.3,1.73.46,2.61.37,2.13.74,4.22,1.09,6.22l.06.34-.34,0C181,350,172.82,349,167,348.27l-6.82-.86-1.82-.24A4.56,4.56,0,0,1,157.76,347.07Z" style="fill:#263238"></path><path d="M152.86,244.54s.31,0,.91.12l2.66.43c2.32.41,5.75,1,10.08,2.08,2.16.53,4.56,1.16,7.13,2,.63.22,1.29.42,2,.67l1,.38c.17.07.34.12.5.2l.49.31a34.86,34.86,0,0,1,3.3,3.16c4.3,4.57,8.93,10,14,15.95l-.1-.07,20,5.88-.24.08,22.71-27.6.08-.1h.11a14.37,14.37,0,0,1,8.71,3.33,14.14,14.14,0,0,1,3.08,3.75,27.36,27.36,0,0,1,2,4.44,17.57,17.57,0,0,1,.86,3.2,7.32,7.32,0,0,1-.11,3.35,2.39,2.39,0,0,1-.45.76l-.49.64-1,1.28q-1,1.29-1.95,2.55-3.89,5.09-7.65,10c-2.5,3.28-5,6.5-7.38,9.65l-3.58,4.68-1.76,2.3a17.7,17.7,0,0,1-1.85,2.22,11.46,11.46,0,0,1-10.43,3.05l-10.07-2.8-18.07-5.06L161.14,288,154,286l-1.84-.54c-.41-.12-.62-.2-.62-.2s.22,0,.63.15l1.86.49,7.13,1.93,26.2,7.19,18.08,5,10.08,2.77a11,11,0,0,0,10-2.94,18.42,18.42,0,0,0,1.81-2.17l1.75-2.31,3.58-4.68L240,281l7.64-10,1.95-2.55,1-1.28.49-.64a1.86,1.86,0,0,0,.37-.63,7,7,0,0,0,.09-3.09,18.12,18.12,0,0,0-.84-3.11c-1.11-3-2.53-6-4.94-8a13.83,13.83,0,0,0-8.37-3.21l.19-.1L214.86,276l-.1.12-.15,0-20-5.93-.06,0,0,0c-5-6-9.62-11.4-13.88-16A35,35,0,0,0,177.4,251l-.43-.28a4.19,4.19,0,0,0-.49-.2l-1-.39c-.65-.25-1.31-.45-1.94-.68-2.56-.85-4.94-1.49-7.1-2-4.31-1.08-7.73-1.74-10-2.19l-2.65-.49C153.16,244.61,152.86,244.54,152.86,244.54Z" style="fill:#263238"></path><path d="M215.73,283.93c-.16.05-.7-1.73-.95-4a13.44,13.44,0,0,1-.1-4.08,21.54,21.54,0,0,1,.62,4A36.34,36.34,0,0,1,215.73,283.93Z" style="fill:#263238"></path><g style="opacity:0.30000000000000004"><polygon points="159.53 347.28 157.76 350.27 190.35 353.39 189.38 350.83 159.53 347.28"></polygon></g><g style="opacity:0.30000000000000004"><path d="M191.83,296.36,154.6,286.11s16.71,11.54,26.45,11.93,10.91.59,10.91.59Z"></path></g><g style="opacity:0.30000000000000004"><polygon points="194.68 269.97 213.84 273.23 235.82 247.65 236.87 248.83 214.68 275.88 194.68 269.97"></polygon></g><path d="M174.72,248.87c0,.14-7.43-2.33-16.5-5.5s-16.37-5.87-16.33-6,7.44,2.33,16.5,5.5S174.77,248.74,174.72,248.87Z" style="fill:#263238"></path><path d="M143.9,274.85a3.91,3.91,0,0,1-.37-1.05,24.54,24.54,0,0,1-.69-2.95,34.64,34.64,0,0,1,2.31-19.67,23.56,23.56,0,0,1,1.35-2.72,4.83,4.83,0,0,1,.6-.94c.08,0-.68,1.43-1.61,3.8a38.18,38.18,0,0,0-2.28,19.47C143.56,273.3,144,274.83,143.9,274.85Z" style="fill:#263238"></path><path d="M143.66,328.65a19,19,0,0,1-4.37-.94,19,19,0,0,1-4.23-1.43,19.42,19.42,0,0,1,4.37.93A19.78,19.78,0,0,1,143.66,328.65Z" style="fill:#263238"></path><path d="M153.91,324.1a85.42,85.42,0,0,1-9.29,1,80.3,80.3,0,0,1-9.32.49,84.64,84.64,0,0,1,9.28-1A80.43,80.43,0,0,1,153.91,324.1Z" style="fill:#263238"></path></g><g id="freepik--speech-bubble-2--inject-118"><polygon points="411.94 91.38 400.4 79.42 397.53 98.33 382.06 97.81 391.74 110.52 382 123.3 398.13 120.12 400.46 136.35 413.5 126.47 429.94 135.08 426.34 118.47 445 115.53 430.49 106.97 438.94 92.38 424.45 98.05 422.68 80.06 411.94 91.38" style="fill:#fff"></polygon><path d="M411.94,91.38s.24-.28.71-.78l2.06-2.21c1.82-1.94,4.47-4.78,7.89-8.41l.18-.2,0,.27c.5,4.88,1.11,11,1.82,18l-.24-.14,14.49-5.7.54-.21-.29.5-8.44,14.6-.08-.3,14.52,8.55.57.33-.66.11-18.65,3,.21-.3c1.15,5.29,2.36,10.89,3.6,16.6l.12.54-.49-.25-14.24-7.46-2.2-1.15.28,0-13,9.87-.35.27-.06-.44c-.8-5.53-1.57-10.95-2.33-16.22l.3.21-16.13,3.17-.62.12.38-.51,9.75-12.77v.28L381.9,97.93l-.26-.34.43,0,15.47.55-.18.15c1.15-7.44,2.12-13.77,2.92-18.9l0-.25.18.18c3.71,3.88,6.56,6.88,8.51,8.91l2.2,2.32c.49.52.74.81.74.81l-.75-.74L409,88.38l-8.66-8.87.21-.07c-.76,5.14-1.71,11.47-2.82,18.92l0,.15h-.16L382.06,98l.16-.32q4.57,6,9.7,12.69l.1.14-.1.14-9.73,12.79-.23-.39,16.12-3.19.26-.05,0,.26q1.14,7.92,2.34,16.23l-.41-.17,13-9.88.13-.1.15.08,2.2,1.15,14.24,7.46-.37.28c-1.24-5.71-2.45-11.31-3.59-16.61l-.06-.26.26,0L445,115.29l-.09.45-14.5-8.58-.19-.11.11-.19,8.48-14.58.25.29-14.51,5.64-.21.08,0-.22c-.67-7-1.25-13.11-1.72-18l.21.07-8,8.37-2.09,2.16C412.18,91.15,411.94,91.38,411.94,91.38Z" style="fill:#263238"></path><path d="M381,111.33a3.45,3.45,0,1,1-3.45-3.44A3.44,3.44,0,0,1,381,111.33Z" style="fill:#fff"></path><path d="M381,111.33c-.05,0-.05-.3-.21-.81a3.37,3.37,0,0,0-1.26-1.78,3.3,3.3,0,0,0-3.07-.42,3.23,3.23,0,1,0,3.07,5.61,3.41,3.41,0,0,0,1.26-1.78c.16-.51.16-.82.21-.82a1.6,1.6,0,0,1,0,.87,3.45,3.45,0,0,1-1.24,2,3.62,3.62,0,0,1-3.45.58,3.68,3.68,0,0,1,0-6.93,3.6,3.6,0,0,1,3.45.58,3.42,3.42,0,0,1,1.24,2A1.57,1.57,0,0,1,381,111.33Z" style="fill:#263238"></path><path d="M413.65,98.8l-.7,11a1.79,1.79,0,0,1-1.68,1.68h0a1.79,1.79,0,0,1-1.88-1.59l-1.23-11.08a1.41,1.41,0,0,1,1.42-1.56l2.69,0A1.4,1.4,0,0,1,413.65,98.8Z" style="fill:#263238"></path><path d="M408.35,117.7a2.69,2.69,0,1,0,1.71-3.4A2.69,2.69,0,0,0,408.35,117.7Z" style="fill:#263238"></path></g><g id="freepik--speech-bubble-1--inject-118"><path d="M111.08,203.09l-3.28-7.23a28,28,0,1,0-4.91,8.75v0Z" style="fill:#fff"></path><path d="M111.08,203.09l-.51.11-1.55.32-6.11,1.21a.11.11,0,0,1-.13-.08.09.09,0,0,1,0-.07h0l.19.11a27.8,27.8,0,0,1-15.07,9.48c-.72.19-1.48.28-2.25.43-.38.06-.77.15-1.16.18l-1.19.09a28,28,0,0,1-20-6.42,28.09,28.09,0,0,1-6.67-35.22l.87-1.52,1-1.43a29.53,29.53,0,0,1,2.17-2.68,28,28,0,0,1,5.21-4.37,28.16,28.16,0,0,1,43.23,19.13,27.79,27.79,0,0,1-1.22,13.54v-.07c1,2.35,1.83,4.17,2.39,5.42.25.6.45,1.06.6,1.39l.19.46-.24-.48-.66-1.39c-.57-1.23-1.4-3-2.48-5.32a.11.11,0,0,1,0-.08,27.76,27.76,0,0,0-41.53-32.17,28.1,28.1,0,0,0-5.11,4.29,30.19,30.19,0,0,0-2.13,2.63L58,172l-.85,1.5a27.71,27.71,0,0,0-.79,25.19,27.67,27.67,0,0,0,27,15.81l1.18-.08c.39,0,.76-.12,1.14-.18.76-.14,1.51-.22,2.23-.4a27.43,27.43,0,0,0,4.08-1.3,28.09,28.09,0,0,0,10.9-8,.11.11,0,0,1,.15,0,.11.11,0,0,1,0,.13h0l-.11-.15,6.06-1.07,1.59-.28Z" style="fill:#263238"></path><path d="M74.4,182.35h3.82a3.25,3.25,0,0,1,3.34-3.27,3.09,3.09,0,0,1,3,2,3.42,3.42,0,0,1-.27,3.09c-.65,1.07-2.07,2-4.64,1.59v8.61h3.77v-5a7.37,7.37,0,0,0,5.3-7.2c0-5.59-5-6.89-7.15-6.89C79.92,175.21,74.33,175.61,74.4,182.35Z" style="fill:#263238"></path><rect x="79.63" y="196.12" width="3.83" height="3.58" style="fill:#263238"></rect></g></svg>