<svg xmlns="http://www.w3.org/2000/svg" viewBox="0 0 500 500"><g id="freepik--Shadow--inject-32"><ellipse id="freepik--path--inject-32" cx="250" cy="416.24" rx="193.89" ry="11.32" style="fill:#f5f5f5"></ellipse></g><g id="freepik--Bench--inject-32"><path d="M236.67,346a27.54,27.54,0,0,1-2.11-16.83c2.45-14.73,14.25-26.68,26.35-26.68a16.65,16.65,0,0,1,14.35,8.08c7.25-8.3,16.81-13.56,26.5-13.56,10.24,0,18.37,5.86,22.71,15a31.74,31.74,0,0,1,17-5.3c10.21,0,18.33,5.83,22.68,14.9l.61,0c10.09,0,17.2,8.31,17.86,19.62,7.3,4,11.32,13.53,9.47,24.68-2,12.07-10.29,22.26-19.87,25.55a48,48,0,0,1-.66,7.86l0,.11c-1,6.19-5.71,11.13-10.33,11.13H214.78c-3.73,0-6.53-3.24-6.77-8a59.84,59.84,0,0,1,.78-12.87C211.89,371,222.89,354.73,236.67,346Z" style="fill:#C612A8"></path><path d="M236.67,346a27.54,27.54,0,0,1-2.11-16.83c2.45-14.73,14.25-26.68,26.35-26.68a16.65,16.65,0,0,1,14.35,8.08c7.25-8.3,16.81-13.56,26.5-13.56,10.24,0,18.37,5.86,22.71,15a31.74,31.74,0,0,1,17-5.3c10.21,0,18.33,5.83,22.68,14.9l.61,0c10.09,0,17.2,8.31,17.86,19.62,7.3,4,11.32,13.53,9.47,24.68-2,12.07-10.29,22.26-19.87,25.55a48,48,0,0,1-.66,7.86l0,.11c-1,6.19-5.71,11.13-10.33,11.13H214.78c-3.73,0-6.53-3.24-6.77-8a59.84,59.84,0,0,1,.78-12.87C211.89,371,222.89,354.73,236.67,346Z" style="fill:#fff;opacity:0.6000000000000001"></path><path d="M267.21,325.88c3-6,4.17-13.71,2.78-22.08-3.22-19.33-18.7-35-34.57-35a21.81,21.81,0,0,0-18.83,10.6c-9.51-10.89-22.05-17.8-34.78-17.8-13.43,0-24.1,7.7-29.8,19.65a41.72,41.72,0,0,0-22.28-6.95c-13.39,0-24,7.65-29.75,19.55l-.8,0c-13.24,0-22.57,10.91-23.44,25.74-9.58,5.24-14.85,17.76-12.42,32.38,2.63,15.84,13.5,29.21,26.07,33.53a62.93,62.93,0,0,0,.87,10.31l0,.15c1.37,8.11,7.49,14.6,13.54,14.6H295.94c4.89,0,8.57-4.26,8.88-10.55a79,79,0,0,0-1-16.89C299.73,358.65,285.31,337.32,267.21,325.88Z" style="fill:#C612A8"></path><path d="M267.21,325.88c3-6,4.17-13.71,2.78-22.08-3.22-19.33-18.7-35-34.57-35a21.81,21.81,0,0,0-18.83,10.6c-9.51-10.89-22.05-17.8-34.78-17.8-13.43,0-24.1,7.7-29.8,19.65a41.72,41.72,0,0,0-22.28-6.95c-13.39,0-24,7.65-29.75,19.55l-.8,0c-13.24,0-22.57,10.91-23.44,25.74-9.58,5.24-14.85,17.76-12.42,32.38,2.63,15.84,13.5,29.21,26.07,33.53a62.93,62.93,0,0,0,.87,10.31l0,.15c1.37,8.11,7.49,14.6,13.54,14.6H295.94c4.89,0,8.57-4.26,8.88-10.55a79,79,0,0,0-1-16.89C299.73,358.65,285.31,337.32,267.21,325.88Z" style="fill:#fff;opacity:0.8"></path><path d="M149.77,292.65,155.45,352h-5.62l-5.64-58.86a2.81,2.81,0,0,1,2.79-3.07h0A2.81,2.81,0,0,1,149.77,292.65Z" style="fill:#C612A8"></path><path d="M313.63,292.65,319.31,352h-5.62l-5.64-58.86a2.81,2.81,0,0,1,2.79-3.07h0A2.81,2.81,0,0,1,313.63,292.65Z" style="fill:#C612A8"></path><path d="M164.22,353.57l4.49,56.57a2.8,2.8,0,0,1-2.79,3h0a2.81,2.81,0,0,1-2.8-2.59l-4.54-57Z" style="fill:#C612A8"></path><path d="M356.05,353.57l4.49,56.57a2.8,2.8,0,1,1-5.59.43l-4.52-57Z" style="fill:#C612A8"></path><path d="M328.4,353.57H334l-4.55,57a2.8,2.8,0,0,1-2.79,2.59h0a2.81,2.81,0,0,1-2.8-3Z" style="fill:#C612A8"></path><path d="M136.57,353.57h5.62l-4.53,57a2.8,2.8,0,1,1-5.59-.43Z" style="fill:#C612A8"></path><polygon points="130.61 309.39 325.24 309.39 321.24 297.03 126.62 297.03 130.61 309.39" style="fill:#263238"></polygon><polygon points="130.61 309.39 325.24 309.39 321.24 297.03 126.62 297.03 130.61 309.39" style="opacity:0.2"></polygon><polygon points="134.21 309.39 328.84 309.39 324.84 297.03 130.22 297.03 134.21 309.39" style="fill:#263238"></polygon><polygon points="133.21 324.8 327.84 324.8 323.85 312.44 129.22 312.44 133.21 324.8" style="fill:#263238"></polygon><polygon points="133.21 324.8 327.84 324.8 323.85 312.44 129.22 312.44 133.21 324.8" style="opacity:0.2"></polygon><polygon points="136.81 324.8 331.44 324.8 327.44 312.44 132.82 312.44 136.81 324.8" style="fill:#263238"></polygon><polygon points="135.81 340.24 330.44 340.24 326.44 327.88 131.82 327.88 135.81 340.24" style="fill:#263238"></polygon><polygon points="135.81 340.24 330.44 340.24 326.44 327.88 131.82 327.88 135.81 340.24" style="opacity:0.2"></polygon><polygon points="139.41 340.24 334.04 340.24 330.04 327.88 135.42 327.88 139.41 340.24" style="fill:#263238"></polygon><rect x="151.22" y="350.5" width="207.28" height="4.83" style="fill:#263238"></rect><rect x="129.74" y="350.5" width="21.48" height="4.83" style="fill:#263238"></rect><rect x="129.74" y="350.5" width="21.48" height="4.83" style="opacity:0.2"></rect><path d="M107.4,249.18a3,3,0,1,1-4.27,3.91l-2-3.69a3.53,3.53,0,1,1,6.29-.22Z" style="fill:#C612A8"></path><path d="M97.53,254.56a3,3,0,1,0,5.6-1.47l-2-3.69a3.52,3.52,0,1,0-3.58,5.16Z" style="fill:#C612A8"></path><path d="M101.43,248.3a.77.77,0,0,1-1.36.72.77.77,0,0,1,1.36-.72Z" style="fill:#263238"></path><path d="M102.7,250.67c.65,1.23.87,2.38.48,2.59s-1.22-.63-1.87-1.85-.86-2.39-.48-2.59S102.05,249.44,102.7,250.67Z" style="fill:#263238"></path><path d="M99.55,247c.52.62.87,1.25.78,1.4s-.59-.25-1.11-.88-.87-1.25-.78-1.39S99,246.41,99.55,247Z" style="fill:#263238"></path><path d="M100.06,246.77c.23.78.56,1.41.73,1.42s.12-.63-.11-1.41-.57-1.41-.74-1.42S99.82,246,100.06,246.77Z" style="fill:#263238"></path><path d="M360.63,293.8a2.09,2.09,0,1,1-3.49-2.08l2.07-2.1a2.47,2.47,0,1,1,3.52,3.48A2.44,2.44,0,0,1,360.63,293.8Z" style="fill:#C612A8"></path><path d="M355,288.26a2,2,0,0,0-.85.52,2.09,2.09,0,0,0,3,2.94l2.07-2.1a2.47,2.47,0,1,0-4.2-1.36Z" style="fill:#C612A8"></path><path d="M360,289.61a.54.54,0,1,1-.76-.77.54.54,0,0,1,.76.77Z" style="fill:#263238"></path><path d="M358.68,291c-.69.68-1.43,1.06-1.64.85s.17-.95.86-1.64,1.43-1.06,1.64-.84S359.37,290.27,358.68,291Z" style="fill:#263238"></path><path d="M360.48,288.1c-.31.47-.66.84-.78.8s.05-.44.36-.92.67-.83.78-.8S360.8,287.62,360.48,288.1Z" style="fill:#263238"></path><path d="M360.77,288.38c-.48.32-.84.67-.81.78s.44,0,.92-.36.84-.66.81-.78S361.24,288.07,360.77,288.38Z" style="fill:#263238"></path><path d="M150.15,197a1.94,1.94,0,0,0-.12,1,2.09,2.09,0,1,0,4.15-.53l-.37-2.92a2.47,2.47,0,1,0-3.66,2.46Z" style="fill:#C612A8"></path><path d="M158,196a2,2,0,0,1,.37.93,2.1,2.1,0,1,1-4.16.52l-.37-2.92A2.47,2.47,0,1,1,158,196Z" style="fill:#C612A8"></path><path d="M153.18,194a.54.54,0,1,0,.46-.61A.54.54,0,0,0,153.18,194Z" style="fill:#263238"></path><path d="M153.43,195.92c.13,1,.49,1.71.79,1.67s.44-.86.3-1.83-.49-1.71-.79-1.67S153.3,195,153.43,195.92Z" style="fill:#263238"></path><path d="M153.73,192.55c0,.57,0,1.07.13,1.12s.24-.38.27-.95,0-1.07-.13-1.12S153.77,192,153.73,192.55Z" style="fill:#263238"></path><path d="M153.33,192.61c.19.54.26,1,.17,1.11s-.33-.31-.52-.85-.26-1-.16-1.11S153.15,192.07,153.33,192.61Z" style="fill:#263238"></path></g><g id="freepik--character-2--inject-32"><polygon points="330.04 403.35 337.68 401.48 335.38 383.29 327.74 385.17 330.04 403.35" style="fill:#ffc3bd"></polygon><polygon points="269.2 405.89 277.04 406.56 280.54 388.58 272.7 387.91 269.2 405.89" style="fill:#ffc3bd"></polygon><path d="M277.76,405.7l-9.55-.81a.67.67,0,0,0-.71.48l-2.15,6.83a1.16,1.16,0,0,0,1,1.49c3.08.21,5.34.22,9.21.55,2.38.2,7.88,1.52,14,1.52,3.23,0,2.89-3.31,1.52-3.52-6.73-1-10.31-4-12.1-5.95A1.91,1.91,0,0,0,277.76,405.7Z" style="fill:#263238"></path><path d="M337.41,400.61l-8.34,2a.69.69,0,0,0-.52.68l.15,7.16a1.14,1.14,0,0,0,1.43,1.09c3-.79,7.3-2,11.08-3,4.43-1.08,8.3-1.77,13.49-3,3.13-.77,3.23-4.16,1.85-4.12-6.3.16-11.21,1.21-17.16-.71A3.61,3.61,0,0,0,337.41,400.61Z" style="fill:#263238"></path><path d="M319.08,167.67l.93,16.27c.14,2.7.31,5.41.5,8.09s.37,5.37.65,8c.06.66.12,1.3.2,1.92s.15,1.29.25,1.84a26.31,26.31,0,0,0,.71,3.37c.63,2.41,1.5,5,2.32,7.53,1.7,5.11,3.45,10.32,5.05,15.56l-5.33,2.54A150,150,0,0,1,316,218.27c-1.29-2.51-2.48-5-3.6-7.83a29.71,29.71,0,0,1-1.41-4.58c-.2-.79-.31-1.48-.46-2.22s-.27-1.44-.39-2.15c-.92-5.66-1.48-11.17-2-16.71s-.79-11-1-16.6Z" style="fill:#ffc3bd"></path><path d="M303.83,161.29c-4.64,5.92,4.57,25.63,4.57,25.63l14.24-10.7s-1.84-6.42-3.41-10.39C316.94,160,308.61,155.2,303.83,161.29Z" style="fill:#C612A8"></path><g style="opacity:0.4"><path d="M303.83,161.29c-4.64,5.92,4.57,25.63,4.57,25.63l14.24-10.7s-1.84-6.42-3.41-10.39C316.94,160,308.61,155.2,303.83,161.29Z"></path></g><path d="M329,227.64l2.44,6.53L323.15,238a41.48,41.48,0,0,1,1-8.22Z" style="fill:#ffc3bd"></path><polygon points="330.89 239.92 323.62 242.59 323.15 238.01 331.42 234.17 330.89 239.92" style="fill:#ffc3bd"></polygon><polygon points="335.38 383.3 336.56 392.67 328.92 394.54 327.74 385.17 335.38 383.3" style="opacity:0.2"></polygon><polygon points="272.7 387.91 280.54 388.58 278.73 397.85 270.89 397.18 272.7 387.91" style="opacity:0.2"></polygon><path d="M269,160.78a2.05,2.05,0,0,0-1.49,2.53,181,181,0,0,1,4.46,23.86c.74,6.09,1.19,11.9,1.46,17.18.66,12.36.38,21.78.75,25,6.15-.42,29.32-2,42-2.92,3.31-47.18-5.2-67.77-5.2-67.77a82.06,82.06,0,0,0-10-1.25c-.71,0-1.44-.07-2.17-.08a155.11,155.11,0,0,0-17.84,1.24c-1.12.13-2.26.3-3.36.48C274.07,159.57,270.91,160.29,269,160.78Z" style="fill:#C612A8"></path><g style="opacity:0.4"><path d="M269,160.78a2.05,2.05,0,0,0-1.49,2.53,181,181,0,0,1,4.46,23.86c.74,6.09,1.19,11.9,1.46,17.18.66,12.36.38,21.78.75,25,6.15-.42,29.32-2,42-2.92,3.31-47.18-5.2-67.77-5.2-67.77a82.06,82.06,0,0,0-10-1.25c-.71,0-1.44-.07-2.17-.08a155.11,155.11,0,0,0-17.84,1.24c-1.12.13-2.26.3-3.36.48C274.07,159.57,270.91,160.29,269,160.78Z"></path></g><path d="M277.51,172.62a33,33,0,0,1-5.19,18.18c-.12-1.2-.26-2.41-.4-3.63-.56-4.58-1.29-9.32-2.24-14.11Z" style="opacity:0.2"></path><path d="M281.73,144.28c1.53,5.66,2.86,10.15-.89,14.26,3.16,2.83,14.56,3.18,14.56,3.18s4.51-2.59,3.28-4.42c-6.51-1.08-6.64-9.21-5.84-13.74Z" style="fill:#ffc3bd"></path><path d="M282.69,148a21.48,21.48,0,0,1,.55,3.47c2.34-.32,5.12-1.81,5.88-3.78a8.76,8.76,0,0,0,.69-3Z" style="opacity:0.2"></path><path d="M278.75,139.18c-3.19.43-7.85-6.11-7.34-11.25.62-6.13,3.84-4,8.07-3.05,3.64.82,3.15,3.15,3.15,3.15-.63-.29-1.46-.58-1.29.26S285.29,138.3,278.75,139.18Z" style="fill:#263238"></path><path d="M295.05,128.67c.62,7.78,1.39,12.3-1.95,16.82-5,6.78-15,4.61-18-2.83-2.64-6.69-3.21-18.29,3.9-22.43A10.64,10.64,0,0,1,295.05,128.67Z" style="fill:#ffc3bd"></path><path d="M295.43,135.29c-3.19.41-7.61-7.7-7.6-10.6,0-4.25,4.21-4.68,8.43-3.69,3.63.85,3.13,3.17,3.13,3.17-.63-.29-1.46-.59-1.29.25S302,134.46,295.43,135.29Z" style="fill:#263238"></path><path d="M293,124.26c-6.13,3.7-26,6.13-22.84-5.16,2-7.41,14.23-5.34,14.23-5.34s-3.79,3.13-.55,2.28C295.39,113,301,119.43,293,124.26Z" style="fill:#263238"></path><path d="M282.4,141.5h0a5.73,5.73,0,0,0,4.36-3,.19.19,0,0,0-.1-.26.19.19,0,0,0-.26.09,5.42,5.42,0,0,1-4.06,2.75.18.18,0,0,0-.16.22A.19.19,0,0,0,282.4,141.5Z" style="fill:#263238"></path><path d="M299,134.53a6.75,6.75,0,0,1-2.86,4.28c-2,1.3-3.68-.29-3.73-2.53-.05-2,.93-5.12,3.2-5.52A3,3,0,0,1,299,134.53Z" style="fill:#ffc3bd"></path><path d="M339,390.21l-12.94,3.16S315.53,346.83,311.58,319c-1.05-7.38-4.44-17.59-6.9-28.65-3.12-13.93-7-29-10.23-40.8-3.37-12.43-5.94-21.22-5.94-21.22l27.58-1.93s14.93,65.1,16.51,89C334.25,340.34,339,390.21,339,390.21Z" style="fill:#C612A8"></path><g style="opacity:0.7000000000000001"><path d="M339,390.21l-12.94,3.16S315.53,346.83,311.58,319c-1.05-7.38-4.44-17.59-6.9-28.65-3.12-13.93-7-29-10.23-40.8-3.37-12.43-5.94-21.22-5.94-21.22l27.58-1.93s14.93,65.1,16.51,89C334.25,340.34,339,390.21,339,390.21Z" style="fill:#fff"></path></g><path d="M304.68,290.35c-3.12-13.93-7-29-10.23-40.8l2.87-6.17C304.16,251.51,306,276.68,304.68,290.35Z" style="opacity:0.2"></path><path d="M301.21,227.44s-2.55,67.71-5.87,90.51c-3.63,25-12.83,78.4-12.83,78.4l-14.35-1.23s2.73-49.62,5.86-73.95c3.58-27.8.12-91.84.12-91.84Z" style="fill:#C612A8"></path><g style="opacity:0.7000000000000001"><path d="M301.21,227.44s-2.55,67.71-5.87,90.51c-3.63,25-12.83,78.4-12.83,78.4l-14.35-1.23s2.73-49.62,5.86-73.95c3.58-27.8.12-91.84.12-91.84Z" style="fill:#fff"></path></g><polygon points="284.2 396.8 267.3 395.36 267.3 389.31 285.68 391.06 284.2 396.8" style="fill:#263238"></polygon><polygon points="339.88 390.31 325.28 393.89 323.34 388.83 339.98 384.73 339.88 390.31" style="fill:#263238"></polygon><path d="M283.66,132.49c.09.63-.17,1.19-.58,1.25s-.82-.41-.91-1,.17-1.18.58-1.24S283.57,131.87,283.66,132.49Z" style="fill:#263238"></path><path d="M276.56,133.5c.09.63-.17,1.19-.58,1.25s-.81-.41-.9-1,.17-1.19.58-1.25S276.47,132.88,276.56,133.5Z" style="fill:#263238"></path><path d="M278.86,133.49a22.72,22.72,0,0,1-2.23,5.8c1.26.88,3.14,0,3.14,0Z" style="fill:#ed847e"></path><path d="M285.54,129.88a.36.36,0,0,1-.38-.08,3,3,0,0,0-2.54-.9.37.37,0,0,1-.44-.29.35.35,0,0,1,.28-.44,3.7,3.7,0,0,1,3.22,1.1.36.36,0,0,1,0,.52A.24.24,0,0,1,285.54,129.88Z" style="fill:#263238"></path><path d="M273.17,131.49a.3.3,0,0,1-.23,0,.37.37,0,0,1-.24-.46,3.68,3.68,0,0,1,2.36-2.46.37.37,0,0,1,.45.26.37.37,0,0,1-.26.46h0a3,3,0,0,0-1.84,2A.36.36,0,0,1,273.17,131.49Z" style="fill:#263238"></path><path d="M280.24,407.29a2.37,2.37,0,0,0,1.54-.27,1.13,1.13,0,0,0,.47-.95.6.6,0,0,0-.28-.55c-.83-.52-3.49.82-3.79,1a.22.22,0,0,0-.1.18.21.21,0,0,0,.13.17A9.56,9.56,0,0,0,280.24,407.29Zm1.3-1.52a.52.52,0,0,1,.23.07.21.21,0,0,1,.1.23.73.73,0,0,1-.31.65,3.81,3.81,0,0,1-2.79-.1A7.69,7.69,0,0,1,281.54,405.77Z" style="fill:#C612A8"></path><path d="M278.25,406.85l.09,0c.85-.37,2.57-1.95,2.47-2.84a.6.6,0,0,0-.54-.54,1.05,1.05,0,0,0-.82.17c-1,.67-1.35,2.91-1.37,3a.2.2,0,0,0,.07.18Zm1.86-3.05.08,0c.24.05.25.16.25.21.06.52-1.05,1.73-1.91,2.28a4.52,4.52,0,0,1,1.13-2.38A.69.69,0,0,1,280.11,403.8Z" style="fill:#C612A8"></path><path d="M338.41,401.48h0c1.3-.06,3.56-.29,4.21-1.24a1,1,0,0,0,.13-1,.62.62,0,0,0-.42-.41c-1.05-.28-3.74,2-4.05,2.28a.19.19,0,0,0-.05.21A.2.2,0,0,0,338.41,401.48Zm3.8-2.26h.05a.22.22,0,0,1,.16.16.68.68,0,0,1-.07.64c-.37.53-1.61.91-3.36,1C340.07,400.19,341.6,399.13,342.21,399.22Z" style="fill:#C612A8"></path><path d="M338.41,401.48a.23.23,0,0,0,.14,0c.82-.64,2.24-2.74,1.89-3.57-.08-.19-.29-.41-.8-.34a1.33,1.33,0,0,0-.92.56c-.78,1-.48,3.14-.47,3.23a.2.2,0,0,0,.12.15Zm1.5-3.58c.15,0,.18.09.19.12.21.5-.71,2.1-1.52,2.89a4.45,4.45,0,0,1,.44-2.6,1,1,0,0,1,.68-.41Z" style="fill:#C612A8"></path><path d="M273.47,174.49c-4.07,3-8.14,5.69-12.42,8.27a114.68,114.68,0,0,1-13.47,7c-1.18.52-2.44,1-3.69,1.44a4.5,4.5,0,0,1-.56.19l-.64.2c-.41.11-.81.2-1.22.29l-1.17.21-1.13.13a37,37,0,0,1-8.23-.27,65.67,65.67,0,0,1-14.76-3.84l1.36-5.74c4.64.25,9.43.45,13.89.29a36.36,36.36,0,0,0,6.24-.7c.45-.11.87-.23,1.25-.35l.52-.2.51-.24c1-.46,2-.91,3-1.45,4-2,7.95-4.52,11.89-7s7.9-5.19,11.68-7.8Z" style="fill:#ffc3bd"></path><path d="M268.85,160.81c-4.68,1.35-10.12,5.58-13.78,9.86L260,186.81a28.86,28.86,0,0,0,15.87-8C283.2,171.24,277.59,158.27,268.85,160.81Z" style="fill:#C612A8"></path><g style="opacity:0.4"><path d="M268.85,160.81c-4.68,1.35-10.12,5.58-13.78,9.86L260,186.81a28.86,28.86,0,0,0,15.87-8C283.2,171.24,277.59,158.27,268.85,160.81Z"></path></g><path d="M220.35,188.56l-6,.66,1.26-7.51a6.21,6.21,0,0,1,6.63,1.62Z" style="fill:#ffc3bd"></path><polygon points="210.67 189.99 211.29 184.29 215.6 181.71 214.34 189.22 210.67 189.99" style="fill:#ffc3bd"></polygon></g><g id="freepik--character-1--inject-32"><path d="M244.88,146.83c8.78-2.66,16.41,3.28,14.37,15.58-1.63,9.87.31,15.24,2.55,16.42-9.13,2.5-20.63,1.36-18.34-5.76s6.63-16.7,1.42-19S236.29,149.44,244.88,146.83Z" style="fill:#263238"></path><path d="M216.52,184.51c6.31-3.34,13-2.8,16-1.14,2.57-.08,13.89-1.1,25.51,4,3.78-.42,12.75,4.55,13.88,7.87-.28,3.07-10.48,25.88-7.74,41.38-7.81-2.82-26.15-8.6-52-7.28C215.05,220.71,209.72,198.72,216.52,184.51Z" style="fill:#C612A8"></path><path d="M260.42,199.82c-.05,1.61,0,3,0,4.49s.16,2.93.28,4.38q.4,4.38,1.21,8.71A71.91,71.91,0,0,0,264.1,226c.21.71.49,1.42.72,2.12s.5,1.41.79,2.11.54,1.36.88,2.11l.58,1.2.66,1.11a28.22,28.22,0,0,0,6.56,7,52.25,52.25,0,0,0,7.56,4.81,85.58,85.58,0,0,0,7.95,3.61,78.13,78.13,0,0,0,8.26,2.69l1.3-3.94c-2.44-1.1-5-2.29-7.36-3.59s-4.77-2.63-7-4.11a54.1,54.1,0,0,1-6.27-4.77,31.17,31.17,0,0,1-2.61-2.67,20.08,20.08,0,0,1-2-2.84l-.38-.72-.3-.72c-.21-.53-.43-1.21-.64-1.81s-.41-1.24-.59-1.87-.38-1.25-.53-1.9c-.68-2.55-1.14-5.18-1.59-7.82s-.72-5.31-.92-8c-.11-1.34-.2-2.68-.26-4s-.09-2.72-.1-3.92Z" style="fill:#ff8b7b"></path><path d="M296.61,248.11l7.08-1.92-1.62,8.43s-4.52-.73-6.67-3.38Z" style="fill:#ff8b7b"></path><polygon points="309.99 247.63 307.63 253.66 302.07 254.62 303.69 246.19 309.99 247.63" style="fill:#ff8b7b"></polygon><path d="M253,197c.07,2.64,1.55,7.82,2.78,11.7.9,2.8,1.66,4.92,1.66,4.92l1.58-.46,13.14-3.81c0-6.81-.48-15.5-7.86-18.85C259.63,188.36,252.85,192.25,253,197Z" style="fill:#263238"></path><path d="M255.76,208.67c.9,2.8,1.66,4.92,1.66,4.92l7.25-2.1c-.56-2.63-4.45-7.82-6.64-7.32A12,12,0,0,0,255.76,208.67Z" style="opacity:0.30000000000000004"></path><polygon points="231.69 408.31 239.74 409.08 245.09 390.21 237.05 389.44 231.69 408.31" style="fill:#ff8b7b"></polygon><polygon points="173.6 390.16 181.06 393.59 191.4 377.41 183.94 373.99 173.6 390.16" style="fill:#ff8b7b"></polygon><path d="M183.27,391.07l-8.17-4.26a.64.64,0,0,0-.84.19L170,393a1.32,1.32,0,0,0,.49,1.9c2.88,1.44,4.34,2,7.94,3.86,2.21,1.16,6.93,4,10,5.63s4.79-1.35,3.66-2.28c-5.06-4.2-6.69-7.33-7.77-10A2.17,2.17,0,0,0,183.27,391.07Z" style="fill:#263238"></path><path d="M241.18,406.64h-9.74a.81.81,0,0,0-.77.59l-2.11,7.7a1.21,1.21,0,0,0,1.19,1.54c3.43,0,5.05,0,9.34,0h13.09c3.56,0,4.3-3.6,2.83-3.92-6.6-1.46-10.41-3.48-12.45-5.4A2,2,0,0,0,241.18,406.64Z" style="fill:#263238"></path><polygon points="245.09 390.22 242.33 399.94 234.06 399.94 237.04 389.44 245.09 390.22" style="opacity:0.2"></polygon><polygon points="183.93 373.99 191.39 377.42 186.06 385.75 178.6 382.32 183.93 373.99" style="opacity:0.2"></polygon><path d="M220.8,234.72,253.87,239c13.9-46.78,10.41-48.49,10.41-48.49s-5.52-1.95-11.15-3.39c-.85-.22-1.71-.43-2.56-.61a104.54,104.54,0,0,0-15-1.93c-.75-.07-1.49-.11-2.23-.15a101.25,101.25,0,0,0-12.06.2c.61,6,1,11.12,1.33,15.57.37,5.81.48,10.49.4,14.58A125.68,125.68,0,0,1,220.8,234.72Z" style="fill:#263238"></path><path d="M223,214.74c2.23-4.81,3.32-15.2,1.91-18.77l-2.31,4.19C223,206,223.08,210.65,223,214.74Z" style="opacity:0.30000000000000004"></path><path d="M239.2,174.54c-.31,4.09-1.27,8.25-3.65,10a70.14,70.14,0,0,1,10.6,17.2c6.2-6.46,4.42-15.28,4.42-15.28-5.22-2-4.87-5.56-2.65-11.34l-4.08-2.19A2.67,2.67,0,0,0,239.2,174.54Z" style="fill:#ff8b7b"></path><path d="M243.84,172.93a2.67,2.67,0,0,0-4.59,1.24,16.59,16.59,0,0,0,7.13,7.3,17.76,17.76,0,0,1,1.54-6.35Z" style="opacity:0.2"></path><path d="M232.85,161.72c2,7.9,2.72,11.28,7.54,14.6,7.26,5,16.51.79,16.88-7.55.33-7.51-3-19.15-11.47-20.83A11.12,11.12,0,0,0,232.85,161.72Z" style="fill:#ff8b7b"></path><path d="M232.47,169.5a6,6,0,0,0,3.34,3.08c2,.71,3.1-1,2.68-2.94-.37-1.74-1.85-4.21-3.88-4.08A2.67,2.67,0,0,0,232.47,169.5Z" style="fill:#ff8b7b"></path><path d="M247.69,146.08c-12.94-3-20.05,3-19,15.42.85,10-1.51,15.17-3.84,16.17,8.9,3.22,20.46,3,18.73-4.28s-4.07-17.83,1.3-19.67S256.43,148.12,247.69,146.08Z" style="fill:#263238"></path><path d="M253.87,239s12.7,63.91,8.47,88.59c-4.06,23.66-16.53,69.57-16.53,69.57l-14.17-.36s8.89-53.2,9.07-73c.29-32.8-11.05-87.93-11.05-87.93Z" style="fill:#C612A8"></path><polygon points="246.69 397.86 230.3 397.41 231.31 392.03 249.07 392.94 246.69 397.86" style="fill:#263238"></polygon><path d="M242.34,246.71l-5.67-10-7-.9s5.16,25.08,8.43,51.46C242,274.68,243.39,252.51,242.34,246.71Z" style="opacity:0.30000000000000004"></path><path d="M246.64,238.13s-10,54.07-19,84.94C220.44,348,190.13,382,190.13,382l-10.71-5.38S199.76,339,204.8,322c16.12-54.2,3.52-73.9,16-87.3Z" style="fill:#C612A8"></path><polygon points="190.06 385.28 177.45 378.76 179.34 373.39 193.27 381.12 190.06 385.28" style="fill:#263238"></polygon><path d="M220.56,232.72l-1.87,2.77c-.15.21.09.48.47.53l34.69,4.45c.3,0,.56-.08.6-.27l.68-2.92c.05-.2-.19-.41-.51-.45l-33.49-4.29A.6.6,0,0,0,220.56,232.72Z" style="fill:#C612A8"></path><path d="M220.56,232.72l-1.87,2.77c-.15.21.09.48.47.53l34.69,4.45c.3,0,.56-.08.6-.27l.68-2.92c.05-.2-.19-.41-.51-.45l-33.49-4.29A.6.6,0,0,0,220.56,232.72Z" style="opacity:0.4"></path><path d="M224.57,237l-.89-.12c-.18,0-.31-.13-.28-.24l.92-3.79c0-.11.19-.19.37-.16l.9.11c.17,0,.3.13.27.25l-.91,3.79C224.92,237,224.75,237.06,224.57,237Z" style="fill:#C612A8"></path><path d="M251.29,240.46l-.9-.11c-.18,0-.3-.13-.28-.25l.92-3.79c0-.11.19-.18.37-.16l.9.12c.18,0,.3.13.27.24l-.91,3.79A.32.32,0,0,1,251.29,240.46Z" style="fill:#C612A8"></path><path d="M237.93,238.75l-.9-.11c-.18,0-.3-.14-.27-.25l.91-3.79c0-.11.2-.18.37-.16l.9.11c.18,0,.3.14.28.25l-.92,3.79C238.28,238.7,238.11,238.77,237.93,238.75Z" style="fill:#C612A8"></path><path d="M246.77,161.09c.12.65.57,1.11,1,1s.67-.67.55-1.32-.57-1.11-1-1S246.64,160.44,246.77,161.09Z" style="fill:#263238"></path><path d="M254.12,159.68c.12.65.57,1.11,1,1s.67-.68.55-1.33-.57-1.11-1-1S254,159,254.12,159.68Z" style="fill:#263238"></path><path d="M254.48,158.43l1.48-.75S255.39,159.05,254.48,158.43Z" style="fill:#263238"></path><path d="M252.1,161a17.66,17.66,0,0,0,3.12,3.7,2.85,2.85,0,0,1-2.24.88Z" style="fill:#ff5652"></path><path d="M250.18,169.26a.21.21,0,0,0,.08-.2.2.2,0,0,0-.23-.15,5.29,5.29,0,0,1-4.59-1.21.18.18,0,0,0-.27,0,.19.19,0,0,0,0,.27,5.57,5.57,0,0,0,5,1.32Z" style="fill:#263238"></path><path d="M243.85,159.38a.38.38,0,0,0,.13-.15,3.07,3.07,0,0,1,2.2-1.74.39.39,0,0,0-.09-.78,3.87,3.87,0,0,0-2.81,2.18.39.39,0,0,0,.57.49Z" style="fill:#263238"></path><path d="M256.3,156.14l0-.07a.39.39,0,0,0-.27-.48,3.84,3.84,0,0,0-3.5.58.39.39,0,0,0,0,.55.38.38,0,0,0,.54,0,3.14,3.14,0,0,1,2.78-.43A.39.39,0,0,0,256.3,156.14Z" style="fill:#263238"></path><path d="M217.88,192.93c-1.1,1.18-2,2.25-2.93,3.41s-1.81,2.3-2.68,3.48c-1.71,2.37-3.32,4.81-4.82,7.35a71.42,71.42,0,0,0-4,7.89c-.31.67-.57,1.38-.85,2.06s-.56,1.39-.8,2.11-.49,1.38-.73,2.17l-.35,1.28-.24,1.27a28.21,28.21,0,0,0,.34,9.58,52.12,52.12,0,0,0,2.52,8.6c1.07,2.74,2.29,5.38,3.6,8a79,79,0,0,0,4.45,7.47l3.58-2.11c-1.12-2.43-2.23-5-3.18-7.55s-1.86-5.12-2.57-7.71a52.87,52.87,0,0,1-1.57-7.72,28,28,0,0,1-.21-3.73,19.82,19.82,0,0,1,.37-3.45l.19-.79.24-.74c.2-.54.48-1.19.72-1.78s.5-1.2.79-1.8.53-1.19.85-1.78c1.17-2.36,2.56-4.64,3.95-6.92s3-4.48,4.57-6.63c.8-1.09,1.62-2.15,2.46-3.2s1.72-2.11,2.51-3Z" style="fill:#ff8b7b"></path><path d="M213.31,253.1l6.59,3.23-6.77,5.27s-2.92-3.53-2.8-6.94Z" style="fill:#ff8b7b"></path><polygon points="222.98 262.85 217.23 265.83 213.13 261.6 219.9 256.33 222.98 262.85" style="fill:#ff8b7b"></polygon><path d="M221.27,184.59c-4.09.55-10.28,12-10.28,12l10.42,10.24s8-9.1,7.76-14.42C229,187.88,226.49,183.88,221.27,184.59Z" style="fill:#263238"></path><path d="M186.56,394l.13,0a1.13,1.13,0,0,0,.76-.77.66.66,0,0,0-.09-.66c-.65-.83-3.6-.55-3.94-.52a.2.2,0,0,0-.16.13.19.19,0,0,0,.06.21C184.11,393.06,185.55,394.16,186.56,394Zm-2.63-1.62c1.19-.08,2.78,0,3.12.41,0,.05.09.13,0,.29a.72.72,0,0,1-.49.52C186,393.76,185.07,393.3,183.93,392.39Z" style="fill:#C612A8"></path><path d="M183.67,392.41c1-.14,2.84-1,3.09-1.8a.68.68,0,0,0-.33-.78,1,1,0,0,0-.85-.15c-1.16.28-2.26,2.37-2.31,2.46a.2.2,0,0,0,0,.2.2.2,0,0,0,.17.09Zm2.08-2.37a.58.58,0,0,1,.46.11c.2.14.2.26.17.35-.16.55-1.6,1.3-2.58,1.49.41-.67,1.18-1.77,1.87-1.94Z" style="fill:#C612A8"></path><path d="M245.5,408.24a3.19,3.19,0,0,0,1.9-.45,1.2,1.2,0,0,0,.5-.94.58.58,0,0,0-.25-.53c-.88-.59-4.2.91-4.85,1.22a.19.19,0,0,0,0,.36A12.75,12.75,0,0,0,245.5,408.24Zm1.55-1.68a.7.7,0,0,1,.39.09s.08.07.07.18a.86.86,0,0,1-.34.65c-.57.43-1.92.49-3.66.16A12.1,12.1,0,0,1,247.05,406.56Z" style="fill:#C612A8"></path><path d="M242.88,407.91H243c1.1-.45,3.32-2.23,3.2-3.15,0-.2-.17-.45-.67-.51-1.94-.23-2.75,3.28-2.79,3.43a.21.21,0,0,0,.06.19A.24.24,0,0,0,242.88,407.91Zm2.42-3.3h.13q.31,0,.33.18c.07.53-1.46,1.94-2.58,2.55C243.44,406.5,244.14,404.61,245.3,404.61Z" style="fill:#C612A8"></path><path d="M247.13,159.84l1.48-.75S248,160.46,247.13,159.84Z" style="fill:#263238"></path><path d="M235.38,183.83s-26.72,14.25-20,4.92c2-3.42,4-5.83,7.19-5.67S235.38,183.83,235.38,183.83Z" style="fill:#C612A8"></path><path d="M252.81,186.24s21.9,19.73,17.91,8.93c-1.78-3.56-4.45-4.37-7.52-5.95C260.33,187.75,252.81,186.24,252.81,186.24Z" style="fill:#C612A8"></path><path d="M292.32,215.42a2.54,2.54,0,0,1,3.59-.32l-3.27,3.9A2.54,2.54,0,0,1,292.32,215.42Z" style="fill:#C612A8"></path><path d="M292.32,215.42a2.54,2.54,0,0,1,3.59-.32l-3.27,3.9A2.54,2.54,0,0,1,292.32,215.42Z" style="opacity:0.30000000000000004"></path><path d="M290.86,213.24a4,4,0,0,0,2.33,5.08l2.75-7.42A4,4,0,0,0,290.86,213.24Z" style="fill:#C612A8"></path><path d="M293.54,219.76a3.44,3.44,0,0,1-6.84-.68l.29-3a7.51,7.51,0,0,1,6.47-3.85,3.36,3.36,0,0,1,.59,2.26Z" style="fill:#C612A8"></path><path d="M290.26,213.66a4,4,0,0,1-3.28,4.53l-1.25-7.82A4,4,0,0,1,290.26,213.66Z" style="fill:#C612A8"></path><path d="M287,216.11l.22-2.27a3.45,3.45,0,0,1,3.76-3.08,3.41,3.41,0,0,1,2.49,1.5A7.51,7.51,0,0,0,287,216.11Z" style="fill:#C612A8"></path><path d="M287,216.11l.22-2.27a3.45,3.45,0,0,1,3.76-3.08,3.41,3.41,0,0,1,2.49,1.5A7.51,7.51,0,0,0,287,216.11Z" style="opacity:0.30000000000000004"></path><path d="M298.07,219.08a2.22,2.22,0,0,1,3.1.51l-3.61,2.59A2.23,2.23,0,0,1,298.07,219.08Z" style="fill:#C612A8"></path><path d="M298.07,219.08a2.22,2.22,0,0,1,3.1.51l-3.61,2.59A2.23,2.23,0,0,1,298.07,219.08Z" style="opacity:0.30000000000000004"></path><path d="M297.31,216.92a3.45,3.45,0,0,0,.87,4.81l3.93-5.68A3.45,3.45,0,0,0,297.31,216.92Z" style="fill:#C612A8"></path><path d="M298.16,223a3,3,0,0,1-5.64-2l.9-2.45a6.56,6.56,0,0,1,6.3-1.85,3,3,0,0,1,0,2Z" style="fill:#C612A8"></path><path d="M296.71,217.15a3.45,3.45,0,0,1-3.76,3.12l.65-6.88A3.45,3.45,0,0,1,296.71,217.15Z" style="fill:#C612A8"></path><path d="M293.42,218.51l.68-1.86a3,3,0,0,1,3.84-1.79,3,3,0,0,1,1.78,1.8A6.56,6.56,0,0,0,293.42,218.51Z" style="fill:#C612A8"></path><path d="M293.42,218.51l.68-1.86a3,3,0,0,1,3.84-1.79,3,3,0,0,1,1.78,1.8A6.56,6.56,0,0,0,293.42,218.51Z" style="opacity:0.30000000000000004"></path><path d="M320,223.69a2.55,2.55,0,0,0-2.42-2.67l-.26,5.09A2.56,2.56,0,0,0,320,223.69Z" style="fill:#C612A8"></path><path d="M320,223.69a2.55,2.55,0,0,0-2.42-2.67l-.26,5.09A2.56,2.56,0,0,0,320,223.69Z" style="opacity:0.30000000000000004"></path><path d="M322.58,223.09a4,4,0,0,1-5.17,2.14l3-7.31A4,4,0,0,1,322.58,223.09Z" style="fill:#C612A8"></path><path d="M316.18,226.05a3.44,3.44,0,0,0,5.48,4.16l1.8-2.38a7.47,7.47,0,0,0-2.13-7.22,3.39,3.39,0,0,0-2,1.25Z" style="fill:#C612A8"></path><path d="M322.73,223.81a4,4,0,0,0-.67,5.55l6.22-4.88A4,4,0,0,0,322.73,223.81Z" style="fill:#C612A8"></path><path d="M323.46,227.83l1.38-1.81a3.42,3.42,0,0,0-3.51-5.41A7.47,7.47,0,0,1,323.46,227.83Z" style="fill:#C612A8"></path><path d="M323.46,227.83l1.38-1.81a3.42,3.42,0,0,0-3.51-5.41A7.47,7.47,0,0,1,323.46,227.83Z" style="opacity:0.30000000000000004"></path><path d="M312.51,223.44a2.22,2.22,0,0,0-2.8-1.42l1.38,4.23A2.23,2.23,0,0,0,312.51,223.44Z" style="fill:#C612A8"></path><path d="M312.51,223.44a2.22,2.22,0,0,0-2.8-1.42l1.38,4.23A2.23,2.23,0,0,0,312.51,223.44Z" style="opacity:0.30000000000000004"></path><path d="M314.4,222.16a3.44,3.44,0,0,1-3.54,3.35l.19-6.9A3.45,3.45,0,0,1,314.4,222.16Z" style="fill:#C612A8"></path><path d="M310.12,226.57a3,3,0,0,0,5.76,1.67l.72-2.5a6.55,6.55,0,0,0-4-5.22,3,3,0,0,0-1.21,1.64Z" style="fill:#C612A8"></path><path d="M314.75,222.69a3.45,3.45,0,0,0,1.19,4.74l3.54-5.93A3.45,3.45,0,0,0,314.75,222.69Z" style="fill:#C612A8"></path><path d="M316.6,225.74l.56-1.91a3,3,0,0,0-4.55-3.31A6.55,6.55,0,0,1,316.6,225.74Z" style="fill:#C612A8"></path><path d="M316.6,225.74l.56-1.91a3,3,0,0,0-4.55-3.31A6.55,6.55,0,0,1,316.6,225.74Z" style="opacity:0.30000000000000004"></path><path d="M300,219.06a2.51,2.51,0,0,0-3.31-1.27l2,4.59A2.51,2.51,0,0,0,300,219.06Z" style="fill:#C612A8"></path><path d="M300,219.06a2.51,2.51,0,0,0-3.31-1.27l2,4.59A2.51,2.51,0,0,0,300,219.06Z" style="opacity:0.30000000000000004"></path><path d="M302,217.39a3.89,3.89,0,0,1-3.59,4.19l-.6-7.78A3.91,3.91,0,0,1,302,217.39Z" style="fill:#C612A8"></path><path d="M297.68,222.85a3.39,3.39,0,1,0,6.67,1.22l.53-2.9a7.37,7.37,0,0,0-5.1-5.4,3.41,3.41,0,0,0-1.17,2Z" style="fill:#C612A8"></path><path d="M302.44,218a3.9,3.9,0,0,0,1.89,5.18l3.3-7.07A3.9,3.9,0,0,0,302.44,218Z" style="fill:#C612A8"></path><path d="M304.88,221.17l.4-2.21a3.39,3.39,0,0,0-2.73-3.94,3.35,3.35,0,0,0-2.77.75A7.37,7.37,0,0,1,304.88,221.17Z" style="fill:#C612A8"></path><path d="M304.88,221.17l.4-2.21a3.39,3.39,0,0,0-2.73-3.94,3.35,3.35,0,0,0-2.77.75A7.37,7.37,0,0,1,304.88,221.17Z" style="opacity:0.30000000000000004"></path><path d="M310.83,221.34a2.7,2.7,0,0,1,3.71.89l-4.61,2.82A2.7,2.7,0,0,1,310.83,221.34Z" style="fill:#C612A8"></path><path d="M310.83,221.34a2.7,2.7,0,0,1,3.71.89l-4.61,2.82A2.7,2.7,0,0,1,310.83,221.34Z" style="opacity:0.30000000000000004"></path><path d="M310.1,218.65a4.19,4.19,0,0,0,.62,5.9L316,218A4.18,4.18,0,0,0,310.1,218.65Z" style="fill:#C612A8"></path><path d="M310.57,226.11a3.64,3.64,0,1,1-6.63-3l1.3-2.89a7.94,7.94,0,0,1,7.8-1.66,3.61,3.61,0,0,1-.17,2.46Z" style="fill:#C612A8"></path><path d="M309.36,218.88a4.2,4.2,0,0,1-4.84,3.43l1.4-8.27A4.2,4.2,0,0,1,309.36,218.88Z" style="fill:#C612A8"></path><path d="M305.24,220.22l1-2.19a3.65,3.65,0,0,1,4.82-1.82,3.61,3.61,0,0,1,2,2.35A7.94,7.94,0,0,0,305.24,220.22Z" style="fill:#C612A8"></path><path d="M305.24,220.22l1-2.19a3.65,3.65,0,0,1,4.82-1.82,3.61,3.61,0,0,1,2,2.35A7.94,7.94,0,0,0,305.24,220.22Z" style="opacity:0.30000000000000004"></path><path d="M322.2,230.53l-36.41-11.35,3.42,30.65L286.27,254a5.09,5.09,0,0,0,2.64,7.79l6.52,2a5.08,5.08,0,0,0,6.6-4.91l0-5.1Z" style="fill:#C612A8"></path><path d="M322.2,230.53l-36.41-11.35,3.42,30.65L286.27,254a5.09,5.09,0,0,0,2.64,7.79l6.52,2a5.08,5.08,0,0,0,6.6-4.91l0-5.1Z" style="opacity:0.2"></path><path d="M298.75,257l-8.66-2.7a4,4,0,0,1-2.6-4.95h0a4,4,0,0,1,4.95-2.6l8.66,2.7a4,4,0,0,1,2.6,4.95h0A4,4,0,0,1,298.75,257Z" style="fill:#263238"></path></g><g id="freepik--Hearts--inject-32"><path d="M241.76,113.07a5.85,5.85,0,0,0-7.12,4.22,5.85,5.85,0,1,0-2.89,11.33l11.33,2.89,2.9-11.33A5.85,5.85,0,0,0,241.76,113.07Z" style="fill:#C612A8"></path><path d="M252.25,92.47a4.52,4.52,0,0,1,6.06,2,4.52,4.52,0,0,1,4,8.09l-8.09,4-4-8.09A4.52,4.52,0,0,1,252.25,92.47Z" style="fill:#C612A8"></path></g></svg>
